<svg width="220" height="19" viewBox="0 0 220 19" fill="none" xmlns="http://www.w3.org/2000/svg">
<path d="M108.266 5.65587C108.266 5.65587 108.173 5.59255 107.998 5.4659C107.823 5.33926 107.555 5.15417 107.209 4.91549C106.508 4.44301 105.465 3.7416 104.053 2.97686C103.341 2.59693 102.543 2.19752 101.637 1.8322C101.184 1.6471 100.706 1.47175 100.2 1.30614C99.6931 1.1454 99.1622 0.9944 98.6069 0.867756C98.0516 0.741112 97.472 0.638823 96.868 0.556017C96.264 0.482954 95.6356 0.434244 94.9927 0.419632C94.8319 0.419632 94.6712 0.414761 94.5056 0.414761C94.34 0.419632 94.1792 0.419632 94.0136 0.424502C93.848 0.434244 93.6824 0.439115 93.5119 0.448857C93.3463 0.453728 93.1758 0.473212 93.0053 0.487824C92.3283 0.546275 91.6366 0.643694 90.9303 0.78008C90.2289 0.916465 89.5226 1.10156 88.8261 1.34511C88.1247 1.58865 87.4379 1.90039 86.7754 2.28519C86.4491 2.48003 86.1227 2.68948 85.8159 2.92816C85.509 3.16196 85.2167 3.42012 84.9391 3.69776C84.3936 4.25792 83.9211 4.90088 83.585 5.62177C83.2489 6.34267 83.0297 7.13176 82.9761 7.95007C82.9664 8.05236 82.9664 8.15465 82.9615 8.25694C82.9566 8.35923 82.9566 8.46152 82.9566 8.56868V8.72455C82.9566 8.77813 82.9615 8.82684 82.9664 8.88042C82.9713 8.98271 82.981 9.085 82.9859 9.19216C83.0346 9.60619 83.1174 10.0105 83.2392 10.4148C83.3707 10.8142 83.5412 11.199 83.7506 11.574C83.9552 11.9491 84.2133 12.2949 84.5007 12.6262C84.7881 12.9574 85.1047 13.2642 85.4505 13.5516C85.7964 13.8341 86.1666 14.0972 86.5562 14.3359C87.3356 14.8132 88.1978 15.1931 89.094 15.4903C89.9951 15.7825 90.9352 15.992 91.8948 16.0748C92.8641 16.1576 93.848 16.1478 94.8319 16.0407C95.8159 15.9238 96.7998 15.7143 97.7691 15.4172C99.7126 14.8181 101.588 13.9023 103.439 12.86C105.29 11.8176 107.126 10.6583 109.05 9.55748C109.528 9.28471 110.005 9.01681 110.482 8.74403C110.955 8.47613 111.427 8.20336 111.895 7.93059C112.83 7.38505 113.765 6.8395 114.7 6.30857C116.571 5.24671 118.451 4.23843 120.375 3.38602C121.339 2.96225 122.309 2.57258 123.298 2.24623C124.286 1.91988 125.285 1.6471 126.298 1.46688C127.311 1.28178 128.334 1.18437 129.352 1.20872C129.479 1.21359 129.605 1.21359 129.732 1.21846C129.859 1.2282 129.985 1.23795 130.112 1.24769L130.302 1.2623L130.395 1.26717L130.487 1.28178C130.614 1.2964 130.735 1.31588 130.862 1.33049L131.047 1.35485C131.111 1.36459 131.169 1.3792 131.232 1.38894C131.354 1.4133 131.476 1.43765 131.603 1.46201C131.851 1.50585 132.09 1.57404 132.328 1.63736C132.572 1.69581 132.806 1.78349 133.039 1.86142L133.215 1.91988C133.273 1.94423 133.332 1.96858 133.385 1.99294C133.497 2.04165 133.614 2.09036 133.726 2.13907C133.843 2.1829 133.95 2.24136 134.062 2.29981C134.174 2.35826 134.282 2.41184 134.394 2.47029C134.501 2.52874 134.603 2.59693 134.71 2.66025L134.866 2.75767L134.944 2.80638C134.968 2.821 134.993 2.84048 135.017 2.85996C135.114 2.93303 135.217 3.00609 135.314 3.07915C135.363 3.11812 135.416 3.14735 135.46 3.19119L135.597 3.31296C135.689 3.39089 135.782 3.4737 135.874 3.55163C135.957 3.63931 136.045 3.72699 136.128 3.80979L136.254 3.94131C136.293 3.98515 136.332 4.03385 136.371 4.08256C136.449 4.17511 136.522 4.26766 136.6 4.36021C136.673 4.45762 136.736 4.55504 136.805 4.65246L136.907 4.79859C136.941 4.8473 136.965 4.90088 137 4.94959C137.058 5.05188 137.116 5.15417 137.175 5.25646C137.228 5.36362 137.277 5.47078 137.326 5.57306L137.399 5.73381C137.423 5.78739 137.443 5.84097 137.462 5.89455C137.501 6.00171 137.545 6.11374 137.584 6.2209C137.618 6.33293 137.652 6.44496 137.681 6.55212L137.73 6.71773C137.745 6.77131 137.754 6.82976 137.769 6.88334C137.793 6.99537 137.818 7.1074 137.842 7.21944C137.862 7.33147 137.876 7.4435 137.891 7.55553L137.915 7.72601C137.925 7.77959 137.925 7.83804 137.93 7.89649C137.94 8.00852 137.944 8.12056 137.954 8.23259C137.959 8.34462 137.959 8.45665 137.959 8.56868C137.959 8.68071 137.964 8.79274 137.954 8.8999C137.949 9.01193 137.94 9.1191 137.935 9.23113C137.93 9.34316 137.91 9.45032 137.901 9.55748L137.881 9.71822L137.871 9.80102L137.857 9.88383C137.837 9.99099 137.818 10.0982 137.798 10.2053C137.452 11.9053 136.639 13.4493 135.47 14.594C134.89 15.1493 134.272 15.6413 133.629 16.065C133.468 16.1673 133.307 16.2745 133.142 16.3719C132.976 16.4644 132.811 16.5619 132.65 16.6544C132.314 16.8249 131.982 17.0002 131.641 17.1415C130.964 17.4289 130.283 17.6676 129.596 17.8283C129.425 17.877 129.255 17.9062 129.084 17.9403C128.914 17.9744 128.748 18.0134 128.578 18.0329C128.407 18.0572 128.242 18.0816 128.076 18.1059C127.91 18.1206 127.74 18.14 127.579 18.1547C127.414 18.1741 127.248 18.179 127.087 18.1839C127.004 18.1887 126.926 18.1887 126.844 18.1936C126.761 18.1985 126.683 18.2034 126.6 18.1985C126.439 18.1985 126.279 18.1985 126.123 18.1936H126.006L125.889 18.1887C125.811 18.1839 125.733 18.179 125.655 18.1741C125.577 18.1693 125.499 18.1644 125.421 18.1595L125.304 18.1547L125.188 18.14C125.037 18.1254 124.886 18.1059 124.735 18.0913C124.584 18.0767 124.437 18.0475 124.291 18.028C124.145 18.0037 123.999 17.9842 123.858 17.9549C122.713 17.7358 121.68 17.4045 120.77 17.0197C119.854 16.6349 119.06 16.2014 118.373 15.7776C117.004 14.9057 116.059 14.0777 115.446 13.4981C115.134 13.2107 114.915 12.9769 114.764 12.821C114.613 12.6651 114.535 12.5872 114.535 12.5872C114.535 12.5872 114.613 12.6651 114.773 12.8161C114.929 12.9671 115.158 13.1961 115.48 13.4688C116.113 14.029 117.077 14.8229 118.461 15.6461C119.157 16.0455 119.951 16.4547 120.862 16.8054C121.773 17.161 122.796 17.4581 123.916 17.6432C124.057 17.6676 124.199 17.6822 124.345 17.7017C124.486 17.7163 124.632 17.7455 124.778 17.7552C124.924 17.765 125.071 17.7796 125.222 17.7942L125.334 17.8039L125.446 17.8088C125.519 17.8088 125.597 17.8137 125.675 17.8186C125.753 17.8234 125.826 17.8234 125.904 17.8283L126.02 17.8332H126.137C126.293 17.8283 126.444 17.8283 126.605 17.8234C126.683 17.8234 126.761 17.8186 126.839 17.8137C126.917 17.8088 126.995 17.8039 127.077 17.7991C127.233 17.7893 127.394 17.7796 127.555 17.7552C127.716 17.7358 127.876 17.7163 128.037 17.6968C128.198 17.6676 128.358 17.6432 128.519 17.614C128.685 17.5896 128.846 17.5507 129.006 17.5117C129.167 17.4727 129.333 17.4435 129.493 17.3899C130.146 17.2194 130.799 16.9808 131.442 16.6885C132.733 16.1089 133.965 15.2516 135.046 14.18C135.173 14.0436 135.309 13.9121 135.426 13.7611C135.485 13.688 135.548 13.615 135.606 13.5419C135.66 13.464 135.718 13.386 135.772 13.3081L135.855 13.1912C135.879 13.1522 135.908 13.1084 135.933 13.0694C135.986 12.9866 136.035 12.9087 136.089 12.8259C136.137 12.7431 136.181 12.6554 136.23 12.5726C136.274 12.4849 136.327 12.407 136.366 12.3144C136.449 12.1391 136.542 11.9637 136.61 11.7835C136.649 11.6909 136.688 11.6033 136.722 11.5107C136.756 11.4182 136.785 11.3256 136.819 11.2331L136.868 11.0918L136.907 10.9506C136.936 10.8531 136.961 10.7606 136.99 10.6632C137.014 10.5658 137.034 10.4683 137.058 10.3709C137.077 10.2735 137.107 10.1761 137.116 10.0787C137.131 9.98125 137.151 9.87896 137.165 9.78154L137.18 9.70848L137.189 9.63541L137.204 9.48441C137.214 9.38212 137.228 9.28471 137.233 9.18242C137.238 9.08013 137.243 8.97784 137.243 8.88042C137.248 8.77813 137.243 8.67584 137.243 8.57842C137.238 8.47613 137.238 8.37384 137.233 8.27155C137.224 8.16927 137.214 8.06698 137.204 7.96469C137.199 7.91598 137.199 7.8624 137.189 7.81369L137.165 7.66269C137.151 7.5604 137.136 7.45811 137.116 7.36069C137.092 7.2584 137.068 7.16098 137.048 7.0587C137.034 7.00999 137.029 6.95641 137.014 6.9077L136.97 6.76157C136.941 6.66415 136.912 6.56186 136.878 6.46444C136.839 6.36703 136.8 6.26961 136.761 6.17706C136.741 6.12835 136.727 6.07964 136.702 6.03093L136.634 5.88967C136.585 5.79713 136.547 5.69971 136.493 5.61203C136.439 5.52436 136.386 5.43181 136.332 5.34413C136.303 5.30029 136.279 5.25158 136.249 5.20775L136.157 5.0811C136.094 4.9983 136.035 4.91062 135.972 4.82294C135.904 4.74014 135.835 4.6622 135.767 4.5794C135.733 4.54043 135.699 4.49659 135.665 4.45762L135.553 4.34559C135.48 4.27253 135.402 4.19459 135.324 4.11666C135.241 4.04847 135.158 3.98027 135.075 3.90721L134.954 3.80492C134.915 3.77082 134.866 3.7416 134.822 3.7075C134.735 3.64418 134.647 3.58086 134.554 3.51754C134.53 3.50292 134.51 3.48344 134.486 3.46883L134.413 3.42499L134.272 3.34218C134.174 3.2886 134.082 3.22528 133.989 3.17657C133.892 3.12786 133.79 3.07915 133.692 3.03044C133.59 2.98174 133.492 2.92816 133.39 2.88919C133.288 2.84535 133.181 2.80638 133.078 2.76254C133.025 2.74306 132.976 2.71871 132.923 2.69922L132.762 2.64564C132.543 2.57745 132.333 2.49951 132.104 2.45081C131.88 2.39723 131.661 2.3339 131.432 2.29494C131.32 2.27545 131.203 2.2511 131.091 2.23161C131.033 2.22187 130.979 2.20726 130.921 2.20239L130.745 2.1829C130.628 2.16829 130.516 2.15368 130.399 2.13907L130.312 2.12932L130.224 2.12445L130.049 2.11471C129.932 2.10497 129.815 2.1001 129.698 2.09036C129.581 2.08549 129.464 2.08549 129.342 2.08549C128.397 2.07574 127.433 2.17803 126.478 2.35826C125.519 2.54335 124.564 2.80638 123.614 3.13273C122.664 3.45909 121.724 3.83902 120.784 4.25792C118.914 5.10059 117.068 6.09912 115.217 7.16098C114.291 7.69192 113.361 8.23746 112.426 8.78787C111.958 9.06064 111.486 9.33829 111.008 9.61106C110.531 9.87896 110.054 10.1517 109.576 10.4196C107.681 11.5058 105.84 12.6651 103.95 13.7172C102.065 14.7694 100.117 15.7143 98.0711 16.3329C97.0482 16.6398 96.001 16.8541 94.9537 16.971C93.9016 17.0782 92.8495 17.083 91.8217 16.9808C90.7842 16.8785 89.7759 16.6447 88.8212 16.3232C87.8665 15.9968 86.9508 15.5779 86.1081 15.0519C85.6892 14.7888 85.2898 14.5015 84.9147 14.1849C84.5397 13.8682 84.1939 13.5224 83.8821 13.1473C83.5704 12.7772 83.2879 12.3777 83.0638 11.954C82.8349 11.5302 82.6498 11.0918 82.5085 10.6388C82.377 10.1858 82.2942 9.72309 82.2455 9.26522C82.2406 9.14832 82.2309 9.03629 82.226 8.91939C82.2211 8.86094 82.2211 8.80248 82.2163 8.7489V8.57842C82.2163 8.46639 82.2163 8.34949 82.226 8.23746C82.2357 8.12543 82.2357 8.0134 82.2504 7.89649C82.3283 6.99537 82.5816 6.12348 82.9712 5.33439C83.3561 4.5453 83.8919 3.84876 84.491 3.25451C84.793 2.95738 85.1193 2.68948 85.4505 2.44593C85.7818 2.19752 86.1325 1.9832 86.4832 1.78349C87.1895 1.38894 87.925 1.07721 88.6605 0.838531C89.396 0.599856 90.1315 0.424502 90.8573 0.297859C91.5782 0.176086 92.2942 0.0932799 92.9907 0.0445707C93.1661 0.0348289 93.3366 0.0202161 93.5119 0.0153452C93.6824 0.0104743 93.8529 0.00560334 94.0234 0.000732422C94.1939 0.000732422 94.3643 0.000732422 94.5299 0.000732422C94.6956 0.000732422 94.866 0.0104743 95.0268 0.0153452C95.6844 0.0445707 96.3273 0.107893 96.9411 0.20044C97.5548 0.297859 98.1442 0.419632 98.7092 0.560888C99.2693 0.702145 99.8052 0.872627 100.312 1.04798C100.818 1.2282 101.301 1.41817 101.754 1.61788C102.66 2.01242 103.458 2.43619 104.155 2.84048C105.553 3.65392 106.576 4.38456 107.258 4.88139C107.599 5.13468 107.857 5.32465 108.027 5.46103C108.178 5.58768 108.266 5.65587 108.266 5.65587Z" fill="white"/>
<path d="M97.6327 12.2608C97.6327 12.2608 97.7155 12.2462 97.8763 12.2218C97.9542 12.2072 98.0565 12.1975 98.1734 12.178C98.2903 12.1585 98.4218 12.1341 98.5728 12.1049C99.1719 11.988 100.034 11.7786 101.047 11.4035C102.065 11.0333 103.229 10.4926 104.481 9.80583C105.733 9.11903 107.073 8.28611 108.5 7.42395C109.216 6.99531 109.917 6.57642 110.614 6.19161C110.96 5.99678 111.305 5.81168 111.646 5.63633C111.978 5.46097 112.304 5.29049 112.625 5.12488C113.892 4.44782 115.027 3.80486 116.011 3.30316C116.132 3.23983 116.254 3.18138 116.371 3.11806C116.488 3.05961 116.605 3.00603 116.717 2.95245C116.941 2.84529 117.151 2.743 117.35 2.65045C117.755 2.4751 118.095 2.31923 118.383 2.2072C118.962 1.98801 119.279 1.87598 119.279 1.87598C119.279 1.87598 118.987 2.04646 118.451 2.34846C118.188 2.50433 117.871 2.70403 117.501 2.9281C117.321 3.045 117.126 3.17164 116.922 3.30803C116.819 3.37622 116.712 3.44441 116.605 3.51261C116.498 3.58567 116.386 3.65873 116.274 3.73667C115.821 4.04354 115.324 4.37476 114.793 4.73034C114.525 4.91056 114.247 5.09566 113.96 5.28075C113.668 5.46585 113.371 5.66068 113.064 5.85065C112.752 6.04061 112.426 6.23545 112.104 6.42542C111.783 6.61538 111.452 6.81022 111.115 7.00993C110.443 7.41908 109.752 7.83798 109.04 8.27149C107.613 9.13365 106.215 9.93248 104.886 10.5511C103.556 11.1746 102.294 11.6227 101.208 11.8808C100.122 12.1439 99.2207 12.2364 98.5972 12.2559C98.4413 12.2608 98.3049 12.2608 98.1831 12.2656C98.0662 12.2656 97.964 12.2608 97.8811 12.2608C97.7155 12.2656 97.6327 12.2608 97.6327 12.2608Z" fill="white"/>
<path d="M100.156 15.7337C100.156 15.7337 100.239 15.7191 100.399 15.6947C100.477 15.6801 100.58 15.6704 100.697 15.6509C100.813 15.6314 100.945 15.607 101.096 15.5778C101.7 15.4609 102.557 15.2515 103.575 14.8764C104.593 14.5062 105.757 13.9655 107.009 13.2787C108.261 12.5919 109.601 11.759 111.028 10.8969C111.744 10.4682 112.445 10.0493 113.142 9.66451C113.488 9.46968 113.833 9.28458 114.174 9.10923C114.506 8.93388 114.832 8.76339 115.153 8.59778C116.42 7.92072 117.555 7.27776 118.539 6.77606C118.66 6.71273 118.782 6.65428 118.899 6.59096C119.016 6.53251 119.133 6.47893 119.245 6.42535C119.469 6.31819 119.679 6.2159 119.878 6.12335C120.283 5.948 120.623 5.79213 120.911 5.6801C121.49 5.46091 121.807 5.34888 121.807 5.34888C121.807 5.34888 121.515 5.51936 120.979 5.82136C120.716 5.97723 120.399 6.17693 120.029 6.401C119.849 6.5179 119.654 6.64454 119.45 6.78093C119.347 6.84912 119.24 6.91731 119.133 6.98551C119.026 7.05857 118.914 7.13163 118.802 7.20957C118.349 7.51644 117.852 7.84766 117.321 8.20324C117.053 8.38346 116.775 8.56856 116.488 8.75365C116.196 8.93875 115.899 9.13358 115.592 9.32355C115.28 9.51351 114.954 9.70835 114.632 9.89832C114.311 10.0883 113.98 10.2831 113.643 10.4828C112.971 10.892 112.28 11.3109 111.568 11.7444C110.141 12.6065 108.743 13.4054 107.414 14.024C106.084 14.6475 104.822 15.0956 103.736 15.3537C102.65 15.6168 101.749 15.7093 101.125 15.7288C100.969 15.7337 100.833 15.7337 100.711 15.7386C100.594 15.7386 100.492 15.7337 100.409 15.7337C100.244 15.7337 100.156 15.7337 100.156 15.7337Z" fill="white"/>
<path d="M0 7.96966C0 7.96966 1.17876 14.2385 9.22552 7.93557C9.22552 7.93557 1.6415 1.5644 0 7.96966ZM1.85095 7.93557C1.85095 7.76996 1.98734 7.63357 2.15782 7.63357C2.3283 7.63357 2.46469 7.76508 2.46469 7.9307C2.46469 8.09631 2.3283 8.23269 2.15782 8.23269C1.98734 8.23756 1.85095 8.10118 1.85095 7.93557ZM7.22845 7.92095C7.22845 7.92095 6.71213 9.806 3.01997 7.93557C3.01997 7.94044 6.46371 6.00181 7.22845 7.92095Z" fill="white"/>
<path d="M9.81978 7.07349C10.2874 7.07349 10.6673 7.44368 10.6722 7.90154C10.6722 8.35941 10.2971 8.73447 9.82952 8.73447C9.36191 8.73447 8.98198 8.36428 8.97711 7.90641C8.97711 7.44855 9.35217 7.07349 9.81978 7.07349Z" fill="white"/>
<path d="M16.3371 7.04907C16.8047 7.04907 17.1846 7.41926 17.1895 7.87713C17.1895 8.335 16.8144 8.71006 16.3468 8.71006C15.8792 8.71006 15.4993 8.33987 15.4944 7.882C15.4895 7.42413 15.8646 7.04907 16.3371 7.04907Z" fill="white"/>
<path d="M13.0833 5.68994C13.0833 5.68994 10.1802 7.8916 10.2094 7.90134C10.1851 7.91108 13.1028 10.0884 13.1028 10.0884C13.4389 9.36749 15.9961 7.88186 15.9912 7.87698C16.0302 7.8575 13.4243 6.40597 13.0833 5.68994Z" fill="white"/>
<path d="M88.7384 7.91612C93.9795 12.0223 94.7443 7.94047 94.7443 7.94047C93.6775 3.76609 88.7384 7.91612 88.7384 7.91612ZM93.3415 8.11095C93.2294 8.11095 93.1417 8.02328 93.1417 7.91612C93.1417 7.80896 93.2343 7.72128 93.3415 7.72128C93.4535 7.72128 93.5412 7.80896 93.5412 7.91612C93.5412 8.02328 93.4486 8.11095 93.3415 8.11095ZM92.7764 7.91612C90.3702 9.13385 90.0341 7.90638 90.0341 7.90638C90.5358 6.65942 92.7764 7.91612 92.7764 7.91612Z" fill="white"/>
<path d="M88.3487 7.35596C88.0419 7.35596 87.7935 7.59463 87.7935 7.89663C87.7935 8.19375 88.037 8.4373 88.3439 8.4373C88.6507 8.4373 88.8992 8.19863 88.8992 7.89663C88.8992 7.5995 88.6556 7.35596 88.3487 7.35596Z" fill="white"/>
<path d="M87.7935 7.58472H16.3371V8.1741H87.7935V7.58472Z" fill="white"/>
<path d="M210.774 7.93557C218.821 14.2385 220 7.96966 220 7.96966C218.358 1.5644 210.774 7.93557 210.774 7.93557ZM217.842 8.23269C217.672 8.23269 217.535 8.09631 217.535 7.9307C217.535 7.76508 217.672 7.6287 217.842 7.63357C218.013 7.63844 218.149 7.76996 218.149 7.93557C218.149 8.10118 218.013 8.23756 217.842 8.23269ZM216.98 7.94044C213.288 9.81087 212.772 7.92582 212.772 7.92582C213.536 6.00181 216.98 7.94044 216.98 7.94044Z" fill="white"/>
<path d="M210.175 7.07349C209.708 7.07349 209.328 7.44368 209.323 7.90154C209.323 8.35941 209.698 8.73447 210.166 8.73447C210.633 8.73447 211.013 8.36428 211.018 7.90641C211.023 7.44855 210.648 7.07349 210.175 7.07349Z" fill="white"/>
<path d="M203.663 7.04907C203.195 7.04907 202.815 7.41926 202.811 7.87713C202.811 8.335 203.186 8.71006 203.653 8.71006C204.121 8.71006 204.501 8.33987 204.506 7.882C204.51 7.42413 204.131 7.04907 203.663 7.04907Z" fill="white"/>
<path d="M206.917 5.68994C206.917 5.68994 209.82 7.8916 209.791 7.90134C209.815 7.91108 206.897 10.0884 206.897 10.0884C206.561 9.36749 204.004 7.88186 204.009 7.87698C203.97 7.8575 206.571 6.40597 206.917 5.68994Z" fill="white"/>
<path d="M125.256 7.94023C125.256 7.94023 126.025 12.0221 131.262 7.91587C131.262 7.91587 126.322 3.76585 125.256 7.94023ZM126.459 7.91587C126.459 7.80871 126.547 7.72104 126.659 7.72104C126.771 7.72104 126.858 7.80871 126.858 7.91587C126.858 8.02303 126.771 8.11071 126.659 8.11071C126.551 8.11071 126.459 8.02303 126.459 7.91587ZM129.961 7.90613C129.961 7.90613 129.625 9.1336 127.219 7.91587C127.219 7.91587 129.464 6.65918 129.961 7.90613Z" fill="white"/>
<path d="M131.651 7.35596C131.958 7.35596 132.207 7.59463 132.207 7.89663C132.207 8.19375 131.963 8.4373 131.656 8.4373C131.349 8.4373 131.101 8.19863 131.101 7.89663C131.101 7.5995 131.344 7.35596 131.651 7.35596Z" fill="white"/>
<path d="M203.663 7.58472H132.207V8.1741H203.663V7.58472Z" fill="white"/>
</svg>
