<svg width="220" height="19" viewBox="0 0 220 19" fill="none" xmlns="http://www.w3.org/2000/svg">
<path d="M108.266 5.65514C108.266 5.65514 108.173 5.59182 107.998 5.46517C107.823 5.33853 107.555 5.15343 107.209 4.91476C106.508 4.44228 105.465 3.74087 104.053 2.97613C103.341 2.5962 102.543 2.19678 101.637 1.83147C101.184 1.64637 100.706 1.47102 100.2 1.30541C99.6931 1.14467 99.1622 0.993668 98.6069 0.867024C98.0516 0.74038 97.472 0.638091 96.868 0.555285C96.264 0.482221 95.6356 0.433512 94.9927 0.418899C94.8319 0.418899 94.6712 0.414028 94.5056 0.414028C94.34 0.418899 94.1792 0.418899 94.0136 0.42377C93.848 0.433512 93.6824 0.438383 93.5119 0.448125C93.3463 0.452996 93.1758 0.472479 93.0053 0.487092C92.3283 0.545543 91.6366 0.642962 90.9303 0.779347C90.2289 0.915733 89.5226 1.10083 88.8261 1.34437C88.1247 1.58792 87.4379 1.89966 86.7754 2.28446C86.4491 2.4793 86.1227 2.68875 85.8159 2.92742C85.509 3.16123 85.2167 3.41939 84.9391 3.69703C84.3936 4.25718 83.9211 4.90015 83.585 5.62104C83.2489 6.34194 83.0297 7.13103 82.9761 7.94934C82.9664 8.05163 82.9664 8.15392 82.9615 8.25621C82.9566 8.3585 82.9566 8.46079 82.9566 8.56795V8.72382C82.9566 8.7774 82.9615 8.82611 82.9664 8.87969C82.9713 8.98198 82.981 9.08427 82.9859 9.19143C83.0346 9.60546 83.1174 10.0097 83.2392 10.414C83.3707 10.8134 83.5411 11.1982 83.7506 11.5733C83.9552 11.9484 84.2133 12.2942 84.5007 12.6254C84.7881 12.9566 85.1047 13.2635 85.4505 13.5509C85.7964 13.8334 86.1666 14.0964 86.5562 14.3351C87.3356 14.8125 88.1978 15.1924 89.094 15.4895C89.9951 15.7818 90.9352 15.9912 91.8948 16.074C92.8641 16.1568 93.848 16.1471 94.8319 16.0399C95.8159 15.923 96.7998 15.7136 97.7691 15.4165C99.7126 14.8173 101.588 13.9016 103.439 12.8592C105.29 11.8169 107.126 10.6576 109.05 9.55675C109.528 9.28397 110.005 9.01607 110.482 8.7433C110.955 8.4754 111.427 8.20263 111.895 7.92986C112.83 7.38432 113.765 6.83877 114.7 6.30784C116.571 5.24598 118.451 4.2377 120.375 3.38529C121.339 2.96152 122.309 2.57185 123.298 2.24549C124.286 1.91914 125.285 1.64637 126.298 1.46615C127.311 1.28105 128.334 1.18363 129.352 1.20799C129.479 1.21286 129.605 1.21286 129.732 1.21773C129.859 1.22747 129.985 1.23721 130.112 1.24696L130.302 1.26157L130.395 1.26644L130.487 1.28105C130.614 1.29566 130.736 1.31515 130.862 1.32976L131.047 1.35412C131.111 1.36386 131.169 1.37847 131.232 1.38821C131.354 1.41257 131.476 1.43692 131.603 1.46128C131.851 1.50511 132.09 1.57331 132.328 1.63663C132.572 1.69508 132.806 1.78276 133.039 1.86069L133.215 1.91914C133.273 1.9435 133.332 1.96785 133.385 1.99221C133.497 2.04092 133.614 2.08962 133.726 2.13833C133.843 2.18217 133.95 2.24062 134.062 2.29907C134.174 2.35753 134.282 2.41111 134.394 2.46956C134.501 2.52801 134.603 2.5962 134.71 2.65952L134.866 2.75694L134.944 2.80565C134.968 2.82026 134.993 2.83975 135.017 2.85923C135.114 2.93229 135.217 3.00536 135.314 3.07842C135.363 3.11739 135.416 3.14661 135.46 3.19045L135.597 3.31223C135.689 3.39016 135.782 3.47297 135.874 3.5509C135.957 3.63858 136.045 3.72625 136.128 3.80906L136.254 3.94057C136.293 3.98441 136.332 4.03312 136.371 4.08183C136.449 4.17438 136.522 4.26693 136.6 4.35947C136.673 4.45689 136.736 4.55431 136.805 4.65173L136.907 4.79786C136.941 4.84657 136.965 4.90015 137 4.94885C137.058 5.05114 137.116 5.15343 137.175 5.25572C137.228 5.36288 137.277 5.47004 137.326 5.57233L137.399 5.73307C137.423 5.78665 137.443 5.84023 137.462 5.89381C137.501 6.00097 137.545 6.11301 137.584 6.22017C137.618 6.3322 137.652 6.44423 137.681 6.55139L137.73 6.717C137.745 6.77058 137.754 6.82903 137.769 6.88261C137.793 6.99464 137.818 7.10667 137.842 7.2187C137.862 7.33073 137.876 7.44277 137.891 7.5548L137.915 7.72528C137.925 7.77886 137.925 7.83731 137.93 7.89576C137.94 8.00779 137.944 8.11982 137.954 8.23186C137.959 8.34389 137.959 8.45592 137.959 8.56795C137.959 8.67998 137.964 8.79201 137.954 8.89917C137.949 9.0112 137.94 9.11836 137.935 9.23039C137.93 9.34243 137.91 9.44959 137.901 9.55675L137.881 9.71749L137.871 9.80029L137.857 9.8831C137.837 9.99026 137.818 10.0974 137.798 10.2046C137.452 11.9045 136.639 13.4486 135.47 14.5933C134.89 15.1486 134.272 15.6405 133.629 16.0643C133.468 16.1666 133.307 16.2737 133.142 16.3712C132.976 16.4637 132.811 16.5611 132.65 16.6537C132.314 16.8242 131.982 16.9995 131.641 17.1408C130.964 17.4282 130.283 17.6668 129.596 17.8276C129.425 17.8763 129.255 17.9055 129.084 17.9396C128.914 17.9737 128.748 18.0127 128.578 18.0321C128.407 18.0565 128.242 18.0809 128.076 18.1052C127.91 18.1198 127.74 18.1393 127.579 18.1539C127.414 18.1734 127.248 18.1783 127.087 18.1831C127.004 18.188 126.926 18.188 126.844 18.1929C126.761 18.1978 126.683 18.2026 126.6 18.1978C126.439 18.1978 126.279 18.1978 126.123 18.1929H126.006L125.889 18.188C125.811 18.1831 125.733 18.1783 125.655 18.1734C125.577 18.1685 125.499 18.1637 125.421 18.1588L125.304 18.1539L125.188 18.1393C125.037 18.1247 124.886 18.1052 124.735 18.0906C124.584 18.076 124.437 18.0468 124.291 18.0273C124.145 18.0029 123.999 17.9834 123.858 17.9542C122.713 17.735 121.68 17.4038 120.77 17.019C119.854 16.6342 119.06 16.2007 118.373 15.7769C117.004 14.905 116.059 14.077 115.446 13.4973C115.134 13.2099 114.915 12.9761 114.764 12.8203C114.613 12.6644 114.535 12.5865 114.535 12.5865C114.535 12.5865 114.613 12.6644 114.773 12.8154C114.929 12.9664 115.158 13.1953 115.48 13.4681C116.113 14.0282 117.077 14.8222 118.461 15.6454C119.157 16.0448 119.951 16.454 120.862 16.8047C121.773 17.1603 122.796 17.4574 123.916 17.6425C124.057 17.6668 124.199 17.6814 124.345 17.7009C124.486 17.7155 124.632 17.7448 124.778 17.7545C124.924 17.7642 125.071 17.7789 125.222 17.7935L125.334 17.8032L125.446 17.8081C125.519 17.8081 125.597 17.813 125.675 17.8178C125.753 17.8227 125.826 17.8227 125.904 17.8276L126.02 17.8324H126.137C126.293 17.8276 126.444 17.8276 126.605 17.8227C126.683 17.8227 126.761 17.8178 126.839 17.813C126.917 17.8081 126.995 17.8032 127.077 17.7983C127.233 17.7886 127.394 17.7789 127.555 17.7545C127.716 17.735 127.876 17.7155 128.037 17.6961C128.198 17.6668 128.358 17.6425 128.519 17.6132C128.685 17.5889 128.846 17.5499 129.006 17.511C129.167 17.472 129.333 17.4428 129.493 17.3892C130.146 17.2187 130.799 16.98 131.442 16.6878C132.733 16.1081 133.965 15.2509 135.046 14.1792C135.173 14.0429 135.309 13.9113 135.426 13.7603C135.485 13.6873 135.548 13.6142 135.606 13.5412C135.66 13.4632 135.718 13.3853 135.772 13.3074L135.855 13.1905C135.879 13.1515 135.908 13.1076 135.933 13.0687C135.986 12.9859 136.035 12.9079 136.089 12.8251C136.137 12.7423 136.181 12.6547 136.23 12.5718C136.274 12.4842 136.327 12.4062 136.366 12.3137C136.449 12.1383 136.542 11.963 136.61 11.7828C136.649 11.6902 136.688 11.6025 136.722 11.51C136.756 11.4174 136.785 11.3249 136.819 11.2323L136.868 11.0911L136.907 10.9498C136.936 10.8524 136.961 10.7599 136.99 10.6624C137.014 10.565 137.034 10.4676 137.058 10.3702C137.077 10.2728 137.107 10.1754 137.116 10.0779C137.131 9.98052 137.151 9.87823 137.165 9.78081L137.18 9.70774L137.189 9.63468L137.204 9.48368C137.214 9.38139 137.228 9.28397 137.233 9.18168C137.238 9.0794 137.243 8.97711 137.243 8.87969C137.248 8.7774 137.243 8.67511 137.243 8.57769C137.238 8.4754 137.238 8.37311 137.233 8.27082C137.224 8.16853 137.214 8.06624 137.204 7.96395C137.199 7.91525 137.199 7.86167 137.189 7.81296L137.165 7.66196C137.151 7.55967 137.136 7.45738 137.116 7.35996C137.092 7.25767 137.068 7.16025 137.048 7.05796C137.034 7.00925 137.029 6.95567 137.014 6.90696L136.97 6.76084C136.941 6.66342 136.912 6.56113 136.878 6.46371C136.839 6.36629 136.8 6.26887 136.761 6.17633C136.741 6.12762 136.727 6.07891 136.702 6.0302L136.634 5.88894C136.585 5.7964 136.547 5.69898 136.493 5.6113C136.439 5.52362 136.386 5.43108 136.332 5.3434C136.303 5.29956 136.279 5.25085 136.249 5.20701L136.157 5.08037C136.094 4.99756 136.035 4.90989 135.972 4.82221C135.904 4.73941 135.835 4.66147 135.767 4.57866C135.733 4.5397 135.699 4.49586 135.665 4.45689L135.553 4.34486C135.48 4.2718 135.402 4.19386 135.324 4.11593C135.241 4.04773 135.158 3.97954 135.075 3.90648L134.954 3.80419C134.915 3.77009 134.866 3.74087 134.822 3.70677C134.735 3.64345 134.647 3.58013 134.554 3.5168C134.53 3.50219 134.51 3.48271 134.486 3.4681L134.413 3.42426L134.272 3.34145C134.174 3.28787 134.082 3.22455 133.989 3.17584C133.892 3.12713 133.79 3.07842 133.692 3.02971C133.59 2.981 133.492 2.92742 133.39 2.88846C133.288 2.84462 133.181 2.80565 133.078 2.76181C133.025 2.74233 132.976 2.71797 132.923 2.69849L132.762 2.64491C132.543 2.57672 132.333 2.49878 132.104 2.45007C131.88 2.39649 131.661 2.33317 131.432 2.2942C131.32 2.27472 131.203 2.25037 131.091 2.23088C131.033 2.22114 130.979 2.20653 130.921 2.20166L130.745 2.18217C130.628 2.16756 130.516 2.15295 130.399 2.13833L130.312 2.12859L130.224 2.12372L130.049 2.11398C129.932 2.10424 129.815 2.09937 129.698 2.08962C129.581 2.08475 129.464 2.08475 129.342 2.08475C128.397 2.07501 127.433 2.1773 126.478 2.35753C125.519 2.54262 124.564 2.80565 123.614 3.132C122.664 3.45835 121.724 3.83828 120.784 4.25718C118.914 5.09985 117.068 6.09839 115.217 7.16025C114.291 7.69118 113.361 8.23673 112.426 8.78714C111.958 9.05991 111.486 9.33755 111.008 9.61032C110.531 9.87823 110.054 10.151 109.576 10.4189C107.681 11.5051 105.84 12.6644 103.95 13.7165C102.065 14.7686 100.117 15.7136 98.0711 16.3322C97.0482 16.6391 96.001 16.8534 94.9537 16.9703C93.9016 17.0774 92.8495 17.0823 91.8217 16.98C90.7842 16.8777 89.7759 16.6439 88.8212 16.3225C87.8665 15.9961 86.9508 15.5772 86.1081 15.0511C85.6892 14.7881 85.2898 14.5007 84.9147 14.1841C84.5397 13.8675 84.1939 13.5217 83.8821 13.1466C83.5704 12.7764 83.2879 12.377 83.0638 11.9532C82.8349 11.5295 82.6498 11.0911 82.5085 10.6381C82.377 10.1851 82.2942 9.72236 82.2455 9.26449C82.2406 9.14759 82.2309 9.03556 82.226 8.91865C82.2211 8.8602 82.2211 8.80175 82.2163 8.74817V8.57769C82.2163 8.46566 82.2163 8.34876 82.226 8.23673C82.2357 8.12469 82.2357 8.01266 82.2504 7.89576C82.3283 6.99464 82.5816 6.12275 82.9712 5.33366C83.3561 4.54457 83.8919 3.84803 84.491 3.25377C84.793 2.95665 85.1193 2.68875 85.4505 2.4452C85.7818 2.19678 86.1325 1.98246 86.4832 1.78276C87.1895 1.38821 87.925 1.07647 88.6605 0.837798C89.396 0.599123 90.1315 0.42377 90.8573 0.297126C91.5782 0.175353 92.2942 0.0925475 92.9907 0.0438383C93.1661 0.0340964 93.3366 0.0194837 93.5119 0.0146128C93.6824 0.00974184 93.8529 0.00487092 94.0234 0C94.1939 0 94.3643 0 94.5299 0C94.6956 0 94.866 0.00974184 95.0268 0.0146128C95.6844 0.0438383 96.3273 0.10716 96.9411 0.199708C97.5548 0.297126 98.1442 0.418899 98.7092 0.560156C99.2693 0.701412 99.8052 0.871895 100.312 1.04725C100.818 1.22747 101.301 1.41744 101.754 1.61715C102.66 2.01169 103.458 2.43546 104.155 2.83975C105.553 3.65319 106.576 4.38383 107.258 4.88066C107.599 5.13395 107.857 5.32392 108.027 5.4603C108.178 5.58695 108.266 5.65514 108.266 5.65514Z" fill="#F48534"/>
<path d="M97.6327 12.26C97.6327 12.26 97.7155 12.2453 97.8763 12.221C97.9542 12.2064 98.0565 12.1966 98.1734 12.1771C98.2903 12.1577 98.4218 12.1333 98.5728 12.1041C99.1719 11.9872 100.034 11.7777 101.047 11.4027C102.065 11.0325 103.229 10.4918 104.481 9.80501C105.733 9.11821 107.073 8.28528 108.5 7.42313C109.216 6.99449 109.917 6.57559 110.614 6.19079C110.96 5.99595 111.305 5.81086 111.646 5.6355C111.978 5.46015 112.304 5.28967 112.625 5.12406C113.892 4.447 115.027 3.80404 116.011 3.30233C116.132 3.23901 116.254 3.18056 116.371 3.11724C116.488 3.05879 116.605 3.00521 116.717 2.95163C116.941 2.84447 117.151 2.74218 117.35 2.64963C117.755 2.47428 118.095 2.31841 118.383 2.20638C118.962 1.98718 119.279 1.87515 119.279 1.87515C119.279 1.87515 118.987 2.04563 118.451 2.34763C118.188 2.5035 117.871 2.70321 117.501 2.92727C117.321 3.04417 117.126 3.17082 116.922 3.3072C116.819 3.3754 116.712 3.44359 116.605 3.51178C116.498 3.58485 116.386 3.65791 116.274 3.73584C115.821 4.04271 115.324 4.37393 114.793 4.72951C114.525 4.90974 114.247 5.09483 113.96 5.27993C113.668 5.46502 113.371 5.65986 113.064 5.84982C112.752 6.03979 112.426 6.23463 112.104 6.42459C111.783 6.61456 111.452 6.8094 111.115 7.0091C110.443 7.41826 109.752 7.83716 109.04 8.27067C107.613 9.13282 106.215 9.93165 104.886 10.5503C103.556 11.1737 102.294 11.6219 101.208 11.88C100.122 12.1431 99.2207 12.2356 98.5972 12.2551C98.4413 12.26 98.3049 12.26 98.1831 12.2648C98.0662 12.2648 97.964 12.26 97.8811 12.26C97.7155 12.2648 97.6327 12.26 97.6327 12.26Z" fill="#F48534"/>
<path d="M100.156 15.7329C100.156 15.7329 100.239 15.7183 100.399 15.6939C100.477 15.6793 100.58 15.6696 100.697 15.6501C100.813 15.6306 100.945 15.6063 101.096 15.577C101.7 15.4601 102.557 15.2507 103.575 14.8756C104.593 14.5054 105.757 13.9648 107.009 13.278C108.261 12.5912 109.601 11.7582 111.028 10.8961C111.744 10.4675 112.445 10.0486 113.142 9.66375C113.488 9.46891 113.833 9.28382 114.174 9.10847C114.506 8.93311 114.832 8.76263 115.153 8.59702C116.42 7.91996 117.555 7.277 118.539 6.77529C118.66 6.71197 118.782 6.65352 118.899 6.5902C119.016 6.53175 119.133 6.47817 119.245 6.42459C119.469 6.31743 119.679 6.21514 119.878 6.12259C120.283 5.94724 120.623 5.79137 120.911 5.67934C121.49 5.46015 121.807 5.34811 121.807 5.34811C121.807 5.34811 121.515 5.5186 120.979 5.82059C120.716 5.97646 120.399 6.17617 120.029 6.40023C119.849 6.51714 119.654 6.64378 119.45 6.78016C119.347 6.84836 119.24 6.91655 119.133 6.98474C119.026 7.05781 118.914 7.13087 118.802 7.20881C118.349 7.51567 117.852 7.8469 117.321 8.20247C117.053 8.3827 116.775 8.56779 116.488 8.75289C116.196 8.93798 115.899 9.13282 115.592 9.32279C115.28 9.51275 114.954 9.70759 114.632 9.89755C114.311 10.0875 113.98 10.2824 113.643 10.4821C112.971 10.8912 112.28 11.3101 111.568 11.7436C110.141 12.6058 108.743 13.4046 107.414 14.0232C106.084 14.6467 104.822 15.0948 103.736 15.353C102.65 15.616 101.749 15.7086 101.125 15.728C100.969 15.7329 100.833 15.7329 100.711 15.7378C100.594 15.7378 100.492 15.7329 100.409 15.7329C100.244 15.7329 100.156 15.7329 100.156 15.7329Z" fill="#F48534"/>
<path d="M0 7.96893C0 7.96893 1.17876 14.2378 9.22552 7.93483C9.22552 7.93483 1.6415 1.56367 0 7.96893ZM1.85095 7.93483C1.85095 7.76922 1.98734 7.63284 2.15782 7.63284C2.3283 7.63284 2.46469 7.76435 2.46469 7.92996C2.46469 8.09557 2.3283 8.23196 2.15782 8.23196C1.98734 8.23683 1.85095 8.10045 1.85095 7.93483ZM7.22845 7.92022C7.22845 7.92022 6.71213 9.80527 3.01997 7.93483C3.01997 7.93971 6.46371 6.00108 7.22845 7.92022Z" fill="#F48534"/>
<path d="M9.81978 7.07266C10.2874 7.07266 10.6673 7.44285 10.6722 7.90072C10.6722 8.35858 10.2971 8.73365 9.82952 8.73365C9.36191 8.73365 8.98198 8.36346 8.97711 7.90559C8.97711 7.44772 9.35217 7.07266 9.81978 7.07266Z" fill="#F48534"/>
<path d="M16.3371 7.04837C16.8047 7.04837 17.1846 7.41856 17.1895 7.87643C17.1895 8.33429 16.8144 8.70935 16.3468 8.70935C15.8792 8.70935 15.4993 8.33916 15.4944 7.8813C15.4895 7.42343 15.8646 7.04837 16.3371 7.04837Z" fill="#F48534"/>
<path d="M13.0833 5.68927C13.0833 5.68927 10.1802 7.89093 10.2094 7.90067C10.1851 7.91041 13.1028 10.0877 13.1028 10.0877C13.4389 9.36681 15.9961 7.88118 15.9912 7.87631C16.0302 7.85683 13.4243 6.4053 13.0833 5.68927Z" fill="#F48534"/>
<path d="M88.7384 7.91542C93.9795 12.0216 94.7443 7.93977 94.7443 7.93977C93.6775 3.76539 88.7384 7.91542 88.7384 7.91542ZM93.3415 8.11025C93.2294 8.11025 93.1417 8.02258 93.1417 7.91542C93.1417 7.80826 93.2343 7.72058 93.3415 7.72058C93.4535 7.72058 93.5412 7.80826 93.5412 7.91542C93.5412 8.02258 93.4486 8.11025 93.3415 8.11025ZM92.7764 7.91542C90.3702 9.13315 90.0341 7.90567 90.0341 7.90567C90.5358 6.65872 92.7764 7.91542 92.7764 7.91542Z" fill="#F48534"/>
<path d="M88.3487 7.35516C88.0419 7.35516 87.7935 7.59384 87.7935 7.89584C87.7935 8.19296 88.037 8.43651 88.3439 8.43651C88.6507 8.43651 88.8992 8.19783 88.8992 7.89584C88.8992 7.59871 88.6556 7.35516 88.3487 7.35516Z" fill="#F48534"/>
<path d="M87.7935 7.58398H16.3371V8.17337H87.7935V7.58398Z" fill="#F48534"/>
<path d="M210.774 7.93483C218.821 14.2378 220 7.96893 220 7.96893C218.359 1.56367 210.774 7.93483 210.774 7.93483ZM217.842 8.23196C217.672 8.23196 217.535 8.09557 217.535 7.92996C217.535 7.76435 217.672 7.62797 217.842 7.63284C218.013 7.63771 218.149 7.76922 218.149 7.93483C218.149 8.10045 218.013 8.23683 217.842 8.23196ZM216.98 7.9397C213.288 9.81014 212.772 7.92509 212.772 7.92509C213.536 6.00108 216.98 7.9397 216.98 7.9397Z" fill="#F48534"/>
<path d="M210.175 7.07266C209.708 7.07266 209.328 7.44285 209.323 7.90072C209.323 8.35858 209.698 8.73365 210.166 8.73365C210.633 8.73365 211.013 8.36346 211.018 7.90559C211.023 7.44772 210.648 7.07266 210.175 7.07266Z" fill="#F48534"/>
<path d="M203.663 7.04837C203.195 7.04837 202.815 7.41856 202.811 7.87643C202.811 8.33429 203.186 8.70935 203.653 8.70935C204.121 8.70935 204.501 8.33916 204.506 7.8813C204.51 7.42343 204.131 7.04837 203.663 7.04837Z" fill="#F48534"/>
<path d="M206.917 5.68927C206.917 5.68927 209.82 7.89093 209.791 7.90067C209.815 7.91041 206.897 10.0877 206.897 10.0877C206.561 9.36681 204.004 7.88118 204.009 7.87631C203.97 7.85683 206.571 6.4053 206.917 5.68927Z" fill="#F48534"/>
<path d="M125.256 7.93956C125.256 7.93956 126.025 12.0214 131.262 7.9152C131.262 7.9152 126.322 3.76518 125.256 7.93956ZM126.459 7.9152C126.459 7.80804 126.547 7.72037 126.659 7.72037C126.771 7.72037 126.858 7.80804 126.858 7.9152C126.858 8.02236 126.771 8.11004 126.659 8.11004C126.551 8.11004 126.459 8.02236 126.459 7.9152ZM129.961 7.90546C129.961 7.90546 129.625 9.13293 127.219 7.9152C127.219 7.9152 129.464 6.6585 129.961 7.90546Z" fill="#F48534"/>
<path d="M131.651 7.35516C131.958 7.35516 132.207 7.59384 132.207 7.89584C132.207 8.19296 131.963 8.43651 131.656 8.43651C131.349 8.43651 131.101 8.19783 131.101 7.89584C131.101 7.59871 131.344 7.35516 131.651 7.35516Z" fill="#F48534"/>
<path d="M203.663 7.58398H132.207V8.17337H203.663V7.58398Z" fill="#F48534"/>
</svg>
