<svg width="208" height="64" viewBox="0 0 208 64" fill="none" xmlns="http://www.w3.org/2000/svg">
<path d="M32 64C49.6731 64 64 49.6731 64 32C64 14.3269 49.6731 0 32 0C14.3269 0 0 14.3269 0 32C0 49.6731 14.3269 64 32 64Z" fill="#F48534"/>
<path d="M32.0237 12.1767C34.6737 12.1767 37.2449 12.6953 39.6643 13.7187C42.0018 14.7075 44.1008 16.1233 45.904 17.9265C47.7072 19.7296 49.1229 21.8286 50.1118 24.1661C51.1351 26.5855 51.6537 29.1567 51.6537 31.8068C51.6537 34.4569 51.1351 37.0281 50.1118 39.4474C49.1229 41.785 47.7072 43.8839 45.904 45.6871C44.1008 47.4903 42.0018 48.9061 39.6643 49.8949C37.2449 50.9183 34.6737 51.4368 32.0237 51.4368C29.3736 51.4368 26.8024 50.9183 24.383 49.8949C22.0455 48.9061 19.9465 47.4903 18.1433 45.6871C16.3401 43.8839 14.9244 41.785 13.9355 39.4474C12.9122 37.0281 12.3936 34.4569 12.3936 31.8068C12.3936 29.1567 12.9122 26.5855 13.9355 24.1661C14.9244 21.8286 16.3401 19.7296 18.1433 17.9265C19.9465 16.1233 22.0455 14.7075 24.383 13.7187C26.8024 12.6963 29.3736 12.1767 32.0237 12.1767ZM32.0237 11.462C20.7875 11.462 11.6779 20.5706 11.6779 31.8078C11.6779 43.0449 20.7875 52.1536 32.0237 52.1536C43.2598 52.1536 52.3695 43.0449 52.3695 31.8078C52.3695 20.5706 43.2608 11.462 32.0237 11.462Z" fill="white"/>
<path d="M44.7831 25.1422C44.6559 24.8996 44.5228 24.6611 44.3818 24.4264C43.2066 22.4615 41.576 20.8013 39.6367 19.5906C39.405 19.4457 39.1684 19.3077 38.9289 19.1765C36.8792 18.0526 34.5259 17.4148 32.0237 17.4148C29.4525 17.4148 27.04 18.0891 24.9509 19.2692C24.7123 19.4043 24.4787 19.5453 24.248 19.6932C22.3245 20.9304 20.7155 22.6134 19.565 24.595C19.428 24.8306 19.2968 25.0722 19.1736 25.3167C18.1867 27.2668 17.6297 29.4722 17.6297 31.8078C17.6297 34.3543 18.2902 36.7451 19.4497 38.8204C19.5837 39.06 19.7237 39.2946 19.8706 39.5253C21.0537 41.3857 22.6528 42.9552 24.5359 44.1038C24.7695 44.2457 25.0061 44.3818 25.2477 44.511C27.2658 45.5905 29.5718 46.2018 32.0217 46.2018C34.4026 46.2018 36.6485 45.624 38.6262 44.6007C38.8697 44.4745 39.1083 44.3424 39.3439 44.2034C41.2418 43.0794 42.8596 41.5316 44.0663 39.6909C44.2172 39.4632 44.3611 39.2295 44.4981 38.9919C45.7177 36.8782 46.4157 34.4253 46.4157 31.8097C46.4167 29.4022 45.8271 27.1346 44.7831 25.1422ZM43.882 38.6331C43.7449 38.8707 43.601 39.1033 43.4501 39.3321C42.9424 40.1011 42.3568 40.8188 41.6962 41.4793C40.877 42.2976 39.9719 43.0016 38.989 43.5832C38.7544 43.7222 38.5148 43.8553 38.2713 43.9796C37.9706 44.1343 37.662 44.2783 37.3485 44.4114C35.6626 45.1242 33.8712 45.486 32.0247 45.486C30.1781 45.486 28.3867 45.1242 26.7009 44.4114C26.3282 44.2536 25.9634 44.0801 25.6085 43.8918C25.367 43.7627 25.1294 43.6276 24.8967 43.4846C23.9769 42.9227 23.126 42.2523 22.3541 41.4793C21.6462 40.7715 21.0241 39.9985 20.4937 39.1674C20.3458 38.9377 20.2058 38.7021 20.0727 38.4625C19.8332 38.0327 19.6163 37.588 19.423 37.1316C18.7102 35.4457 18.3484 33.6543 18.3484 31.8078C18.3484 29.9612 18.7102 28.1698 19.423 26.484C19.5394 26.2099 19.6636 25.9398 19.7967 25.6745C19.9199 25.4291 20.0491 25.1885 20.1871 24.9519C20.7806 23.9266 21.5052 22.9841 22.3541 22.1352C23.0452 21.4441 23.7984 20.8348 24.6078 20.3113C24.8375 20.1624 25.0722 20.0215 25.3108 19.8874C25.7593 19.634 26.2237 19.4063 26.7019 19.2042C28.3877 18.4914 30.1791 18.1295 32.0257 18.1295C33.8722 18.1295 35.6636 18.4914 37.3495 19.2042C37.7685 19.3816 38.1776 19.5788 38.5739 19.7947C38.8145 19.9258 39.0501 20.0639 39.2818 20.2098C40.1523 20.755 40.9608 21.3987 41.6982 22.1362C42.4998 22.9377 43.1918 23.824 43.7666 24.7843C43.9066 25.0179 44.0407 25.2575 44.1659 25.5C44.3325 25.8214 44.4873 26.1497 44.6293 26.4849C45.3421 28.1708 45.7039 29.9622 45.7039 31.8088C45.7039 33.6553 45.3421 35.4467 44.6293 37.1326C44.4084 37.6492 44.16 38.151 43.882 38.6331Z" fill="white"/>
<path d="M18.2656 32.3667H10.5037C10.2947 32.3667 10.1251 32.207 10.1251 32.0088C10.1251 31.8117 10.2947 31.651 10.5037 31.651H18.2429C18.1029 31.7653 17.9689 31.8817 17.8417 31.999C17.9767 32.1242 18.1177 32.2464 18.2656 32.3667Z" fill="white"/>
<path d="M53.8799 32.0088C53.8799 32.206 53.7113 32.3667 53.5013 32.3667H45.7285C45.8764 32.2464 46.0174 32.1242 46.1524 32C46.0243 31.8826 45.8902 31.7663 45.7512 31.6519H53.5013C53.7113 31.6519 53.8799 31.8117 53.8799 32.0088Z" fill="white"/>
<path d="M20.4917 39.1674L19.8726 39.5253L17.7115 40.7734C17.6435 40.8119 17.5686 40.8326 17.4917 40.8326C17.3438 40.8326 17.2087 40.7557 17.1358 40.6314C17.0224 40.4362 17.0963 40.1809 17.3004 40.0626L19.4506 38.8213L20.0698 38.4635C20.2038 38.7021 20.3438 38.9367 20.4917 39.1674Z" fill="white"/>
<path d="M46.8011 23.8408C46.7696 23.9463 46.6986 24.036 46.601 24.0922L44.783 25.1421L44.1639 25.5C44.0377 25.2565 43.9046 25.0179 43.7646 24.7843L44.3818 24.4274L46.1909 23.3833C46.2579 23.3439 46.3338 23.3232 46.4097 23.3232C46.5576 23.3232 46.6937 23.4001 46.7656 23.5243C46.8218 23.6199 46.8337 23.7323 46.8011 23.8408Z" fill="white"/>
<path d="M25.6075 43.8908L25.2496 44.51L23.9403 46.7765C23.8634 46.9106 23.7214 46.9944 23.5716 46.9944C23.5016 46.9944 23.4326 46.9757 23.3724 46.9412C23.1763 46.8278 23.1122 46.5705 23.2305 46.3664L24.5378 44.1028L24.8956 43.4837C25.1273 43.6276 25.3659 43.7627 25.6075 43.8908Z" fill="white"/>
<path d="M40.6216 17.886L39.6367 19.5906L39.2798 20.2098C39.0481 20.0639 38.8125 19.9268 38.5719 19.7947L38.9288 19.1766L39.9107 17.4759C39.9876 17.3418 40.1296 17.258 40.2804 17.258C40.3504 17.258 40.4185 17.2768 40.4796 17.3113C40.6748 17.4246 40.7389 17.6829 40.6216 17.886Z" fill="white"/>
<path d="M25.3088 19.8874C25.0702 20.0215 24.8356 20.1625 24.6059 20.3113L24.248 19.6922L23.2631 17.9866C23.2069 17.889 23.1901 17.7756 23.2157 17.6692C23.2414 17.5587 23.3094 17.468 23.405 17.4128C23.4652 17.3773 23.5342 17.3596 23.6042 17.3596C23.754 17.3596 23.896 17.4424 23.9729 17.5765L24.9499 19.2693L25.3088 19.8874Z" fill="white"/>
<path d="M40.5122 47.0427C40.4521 47.0782 40.3831 47.0959 40.3131 47.0959C40.1622 47.0959 40.0203 47.0131 39.9434 46.8781L38.6282 44.5997L38.2703 43.9795C38.5138 43.8543 38.7534 43.7222 38.9881 43.5832L39.3459 44.2024L40.6542 46.4689C40.7715 46.671 40.7084 46.9293 40.5122 47.0427Z" fill="white"/>
<path d="M20.1851 24.9519C20.047 25.1885 19.9169 25.43 19.7947 25.6745L19.1745 25.3167L17.3585 24.2687C17.2609 24.2125 17.1899 24.1228 17.1584 24.0173C17.1259 23.9088 17.1387 23.7964 17.1939 23.6998C17.2659 23.5756 17.4019 23.4987 17.5498 23.4987C17.6257 23.4987 17.7016 23.5194 17.7687 23.5578L19.5659 24.596L20.1851 24.9519Z" fill="white"/>
<path d="M46.8238 40.806C46.7518 40.9302 46.6158 41.0071 46.4679 41.0071C46.391 41.0071 46.3161 40.9874 46.248 40.948L44.0673 39.689L43.4491 39.3321C43.5999 39.1034 43.7439 38.8707 43.8809 38.6331L44.4991 38.99L46.6582 40.2371C46.8622 40.3554 46.9362 40.6108 46.8238 40.806Z" fill="white"/>
<path d="M32.3599 45.7463V53.5082C32.3599 53.7172 32.2002 53.8868 32.002 53.8868C31.8039 53.8868 31.6442 53.7172 31.6442 53.5082V45.769C31.7585 45.909 31.8749 46.0431 31.9922 46.1702C32.1174 46.0352 32.2396 45.8942 32.3599 45.7463Z" fill="white"/>
<path d="M32.002 10.131C32.1991 10.131 32.3599 10.2996 32.3599 10.5096V18.2823C32.2396 18.1344 32.1173 17.9935 31.9931 17.8584C31.8758 17.9865 31.7594 18.1206 31.6451 18.2596V10.5096C31.6451 10.3006 31.8048 10.131 32.002 10.131Z" fill="white"/>
<path d="M25.5532 6.8401C25.9142 6.8401 26.2069 6.54745 26.2069 6.18645C26.2069 5.82545 25.9142 5.53281 25.5532 5.53281C25.1922 5.53281 24.8996 5.82545 24.8996 6.18645C24.8996 6.54745 25.1922 6.8401 25.5532 6.8401Z" fill="white"/>
<path d="M13.4613 13.5343C13.8223 13.5343 14.115 13.2417 14.115 12.8807C14.115 12.5197 13.8223 12.227 13.4613 12.227C13.1003 12.227 12.8077 12.5197 12.8077 12.8807C12.8077 13.2417 13.1003 13.5343 13.4613 13.5343Z" fill="white"/>
<path d="M6.33724 25.3768C6.69824 25.3768 6.99088 25.0842 6.99088 24.7232C6.99088 24.3622 6.69824 24.0695 6.33724 24.0695C5.97624 24.0695 5.68359 24.3622 5.68359 24.7232C5.68359 25.0842 5.97624 25.3768 6.33724 25.3768Z" fill="white"/>
<path d="M6.08791 39.195C6.44891 39.195 6.74155 38.9024 6.74155 38.5414C6.74155 38.1804 6.44891 37.8878 6.08791 37.8878C5.72691 37.8878 5.43427 38.1804 5.43427 38.5414C5.43427 38.9024 5.72691 39.195 6.08791 39.195Z" fill="white"/>
<path d="M12.7811 51.287C13.1421 51.287 13.4348 50.9943 13.4348 50.6334C13.4348 50.2724 13.1421 49.9797 12.7811 49.9797C12.4201 49.9797 12.1275 50.2724 12.1275 50.6334C12.1275 50.9943 12.4201 51.287 12.7811 51.287Z" fill="white"/>
<path d="M24.6236 58.411C24.9846 58.411 25.2772 58.1184 25.2772 57.7574C25.2772 57.3964 24.9846 57.1037 24.6236 57.1037C24.2626 57.1037 23.9699 57.3964 23.9699 57.7574C23.9699 58.1184 24.2626 58.411 24.6236 58.411Z" fill="white"/>
<path d="M38.4418 58.6604C38.8028 58.6604 39.0954 58.3678 39.0954 58.0068C39.0954 57.6458 38.8028 57.3531 38.4418 57.3531C38.0808 57.3531 37.7881 57.6458 37.7881 58.0068C37.7881 58.3678 38.0808 58.6604 38.4418 58.6604Z" fill="white"/>
<path d="M50.5337 51.9672C50.8947 51.9672 51.1874 51.6746 51.1874 51.3136C51.1874 50.9526 50.8947 50.6599 50.5337 50.6599C50.1727 50.6599 49.8801 50.9526 49.8801 51.3136C49.8801 51.6746 50.1727 51.9672 50.5337 51.9672Z" fill="white"/>
<path d="M57.6587 40.1247C58.0197 40.1247 58.3124 39.8321 58.3124 39.4711C58.3124 39.1101 58.0197 38.8174 57.6587 38.8174C57.2977 38.8174 57.0051 39.1101 57.0051 39.4711C57.0051 39.8321 57.2977 40.1247 57.6587 40.1247Z" fill="white"/>
<path d="M57.9082 26.3065C58.2692 26.3065 58.5619 26.0139 58.5619 25.6529C58.5619 25.2919 58.2692 24.9992 57.9082 24.9992C57.5472 24.9992 57.2546 25.2919 57.2546 25.6529C57.2546 26.0139 57.5472 26.3065 57.9082 26.3065Z" fill="white"/>
<path d="M51.2141 14.2146C51.5751 14.2146 51.8677 13.9219 51.8677 13.5609C51.8677 13.1999 51.5751 12.9073 51.2141 12.9073C50.8531 12.9073 50.5604 13.1999 50.5604 13.5609C50.5604 13.9219 50.8531 14.2146 51.2141 14.2146Z" fill="white"/>
<path d="M39.3715 7.08952C39.7325 7.08952 40.0251 6.79687 40.0251 6.43587C40.0251 6.07487 39.7325 5.78223 39.3715 5.78223C39.0105 5.78223 38.7178 6.07487 38.7178 6.43587C38.7178 6.79687 39.0105 7.08952 39.3715 7.08952Z" fill="white"/>
<path d="M32.0266 8.41848C33.6949 8.41848 35.0474 7.06604 35.0474 5.39772C35.0474 3.7294 33.6949 2.37695 32.0266 2.37695C30.3583 2.37695 29.0059 3.7294 29.0059 5.39772C29.0059 7.06604 30.3583 8.41848 32.0266 8.41848Z" fill="white"/>
<path d="M18.7221 11.9687C20.3904 11.9687 21.7428 10.6162 21.7428 8.94792C21.7428 7.2796 20.3904 5.92715 18.7221 5.92715C17.0537 5.92715 15.7013 7.2796 15.7013 8.94792C15.7013 10.6162 17.0537 11.9687 18.7221 11.9687Z" fill="white"/>
<path d="M8.97456 21.6965C10.6429 21.6965 11.9953 20.344 11.9953 18.6757C11.9953 17.0074 10.6429 15.6549 8.97456 15.6549C7.30624 15.6549 5.9538 17.0074 5.9538 18.6757C5.9538 20.344 7.30624 21.6965 8.97456 21.6965Z" fill="white"/>
<path d="M5.39772 34.9941C7.06604 34.9941 8.41848 33.6417 8.41848 31.9734C8.41848 30.305 7.06604 28.9526 5.39772 28.9526C3.7294 28.9526 2.37695 30.305 2.37695 31.9734C2.37695 33.6417 3.7294 34.9941 5.39772 34.9941Z" fill="white"/>
<path d="M8.94795 48.2997C10.6163 48.2997 11.9687 46.9473 11.9687 45.279C11.9687 43.6107 10.6163 42.2582 8.94795 42.2582C7.27963 42.2582 5.92719 43.6107 5.92719 45.279C5.92719 46.9473 7.27963 48.2997 8.94795 48.2997Z" fill="white"/>
<path d="M18.6757 58.0462C20.3441 58.0462 21.6965 56.6938 21.6965 55.0254C21.6965 53.3571 20.3441 52.0047 18.6757 52.0047C17.0074 52.0047 15.655 53.3571 15.655 55.0254C15.655 56.6938 17.0074 58.0462 18.6757 58.0462Z" fill="white"/>
<path d="M31.9733 61.624C33.6417 61.624 34.9941 60.2716 34.9941 58.6032C34.9941 56.9349 33.6417 55.5825 31.9733 55.5825C30.305 55.5825 28.9526 56.9349 28.9526 58.6032C28.9526 60.2716 30.305 61.624 31.9733 61.624Z" fill="white"/>
<path d="M45.2789 58.0728C46.9473 58.0728 48.2997 56.7204 48.2997 55.0521C48.2997 53.3838 46.9473 52.0313 45.2789 52.0313C43.6106 52.0313 42.2582 53.3838 42.2582 55.0521C42.2582 56.7204 43.6106 58.0728 45.2789 58.0728Z" fill="white"/>
<path d="M55.0255 48.345C56.6938 48.345 58.0462 46.9926 58.0462 45.3243C58.0462 43.6559 56.6938 42.3035 55.0255 42.3035C53.3571 42.3035 52.0047 43.6559 52.0047 45.3243C52.0047 46.9926 53.3571 48.345 55.0255 48.345Z" fill="white"/>
<path d="M58.6032 35.0474C60.2715 35.0474 61.6239 33.6949 61.6239 32.0266C61.6239 30.3583 60.2715 29.0059 58.6032 29.0059C56.9348 29.0059 55.5824 30.3583 55.5824 32.0266C55.5824 33.6949 56.9348 35.0474 58.6032 35.0474Z" fill="white"/>
<path d="M55.052 21.7428C56.7203 21.7428 58.0728 20.3904 58.0728 18.7221C58.0728 17.0537 56.7203 15.7013 55.052 15.7013C53.3837 15.7013 52.0312 17.0537 52.0312 18.7221C52.0312 20.3904 53.3837 21.7428 55.052 21.7428Z" fill="white"/>
<path d="M45.3243 11.9953C46.9926 11.9953 48.3451 10.6429 48.3451 8.97453C48.3451 7.30621 46.9926 5.95377 45.3243 5.95377C43.656 5.95377 42.3035 7.30621 42.3035 8.97453C42.3035 10.6429 43.656 11.9953 45.3243 11.9953Z" fill="white"/>
<path d="M30.3092 5.24772C30.3329 5.19941 30.3388 5.14716 30.3635 5.10082C30.3911 5.04956 30.4354 5.00421 30.4768 4.9628C30.5478 4.89181 30.6425 4.86027 30.741 4.86322C30.9668 4.86914 31.1255 5.14815 31.2143 5.32166C31.4874 5.85799 31.5998 6.47121 31.726 7.05486C31.7447 7.1426 31.8452 7.19189 31.9281 7.16922C32.0227 7.14359 32.0552 7.05584 32.0424 6.96711C31.9892 6.59149 31.8916 6.21586 31.7792 5.85306C31.6816 5.53954 31.5682 5.20533 31.3779 4.93421C31.1906 4.66703 30.9126 4.48366 30.5774 4.54774C30.4354 4.57436 30.3043 4.66506 30.2087 4.77055C30.1051 4.8859 29.9868 5.09885 30.0864 5.24871C30.1367 5.32265 30.2639 5.33941 30.3092 5.24772Z" fill="#F48534"/>
<path d="M33.681 5.24779C33.7776 5.10287 33.6691 4.90766 33.5755 4.79132C33.4789 4.67006 33.3399 4.58429 33.19 4.54781C32.8568 4.46697 32.5768 4.6809 32.3895 4.93428C32.1942 5.1985 32.0868 5.54356 31.9892 5.85313C31.8748 6.21396 31.7782 6.59156 31.726 6.96718C31.7131 7.05591 31.7467 7.14366 31.8403 7.16929C31.9231 7.19197 32.0237 7.14168 32.0424 7.05493C32.1686 6.46832 32.2869 5.86496 32.5541 5.32173C32.6389 5.15019 32.7897 4.89287 33.0027 4.86527C33.1003 4.85245 33.1969 4.88301 33.2718 4.94512C33.3162 4.9816 33.3566 5.02991 33.3891 5.07625C33.4256 5.1285 33.4306 5.19061 33.4582 5.24779C33.5045 5.33948 33.6317 5.32272 33.681 5.24779Z" fill="#F48534"/>
<path d="M47.3217 8.83652C47.2951 8.69455 47.1284 8.60089 46.9993 8.57131C46.8445 8.53582 46.6838 8.57131 46.5339 8.60976C46.3851 8.64821 46.248 8.68962 46.0933 8.68666C45.9454 8.68469 45.7945 8.66891 45.6526 8.62751C45.551 8.5299 45.4731 8.41751 45.3962 8.30019C45.3055 8.16217 45.2691 8.01231 45.2276 7.85556C45.1892 7.7126 45.1399 7.56669 45.0443 7.45134C44.9546 7.34388 44.782 7.23543 44.6381 7.28571C44.5454 7.31825 44.5287 7.43261 44.6115 7.48782C44.6588 7.51937 44.716 7.52331 44.7613 7.55979C44.8126 7.6012 44.8471 7.64556 44.8777 7.70373C44.9447 7.83189 44.9615 7.98865 44.9969 8.12766C45.0295 8.25287 45.0847 8.36723 45.1557 8.47371C45.0275 8.44807 44.8974 8.44709 44.7663 8.46582C44.4577 8.51019 44.1915 8.74877 44.0426 9.012C43.9016 9.25946 43.8622 9.56312 43.948 9.83621C44.0002 10.0009 44.1018 10.1428 44.2201 10.267C44.3118 10.3627 44.8008 10.6466 44.924 10.6821C45.0926 10.7314 45.2671 10.7413 45.4386 10.7146C45.7305 10.6683 45.9769 10.4613 46.1278 10.2168C46.2845 9.9624 46.3407 9.6272 46.2471 9.34129C46.2037 9.20721 46.1278 9.08595 46.0341 8.98144C46.1633 8.98736 46.2865 8.98243 46.4156 8.94792C46.5487 8.91243 46.6789 8.85623 46.8169 8.84046C46.881 8.83257 46.9411 8.83849 47.0032 8.85821C47.0673 8.87891 47.1048 8.93215 47.1629 8.96074C47.2487 9.0051 47.3394 8.93313 47.3217 8.83652ZM45.8389 10.0265C45.7393 10.2059 45.5717 10.3351 45.3696 10.3794C45.2503 10.4061 45.1231 10.3824 45.0078 10.3508C44.9072 10.3242 44.574 10.133 44.503 10.0679C44.4133 9.98606 44.3275 9.88452 44.2841 9.77015C44.2102 9.57495 44.2398 9.36298 44.3364 9.18454C44.4439 8.98539 44.6312 8.8444 44.8491 8.78624C44.9634 8.75567 45.0837 8.76455 45.1991 8.78821C45.2898 8.80694 45.3814 8.84243 45.4741 8.86018C45.4761 8.86215 45.4781 8.86412 45.481 8.86511C45.4889 8.87102 45.4978 8.87497 45.5076 8.87891C45.5155 8.88581 45.5234 8.89074 45.5323 8.89567C45.5352 8.89666 45.5372 8.89764 45.5402 8.89863C45.5964 8.9637 45.6634 9.02088 45.7216 9.082C45.8034 9.16777 45.8704 9.26538 45.9089 9.37777C45.9819 9.59368 45.9473 9.83128 45.8389 10.0265Z" fill="#F48534"/>
<path d="M55.4287 16.9346C55.4287 16.9376 55.4287 16.9405 55.4287 16.9435C55.4415 16.911 55.4553 16.8794 55.4682 16.8479C55.3932 16.907 55.3794 17.0165 55.3824 17.1062C55.3853 17.2186 55.3932 17.3319 55.407 17.4443C55.4376 17.6869 55.5086 17.9225 55.6052 18.1463C55.7028 18.375 55.8743 18.5732 56.0548 18.7408C56.2233 18.8985 56.4639 19.0868 56.7025 18.9754C56.7804 18.9389 56.7873 18.8423 56.7567 18.7733C56.7084 18.6659 56.6118 18.6166 56.5142 18.5614C56.4343 18.516 56.3722 18.4549 56.3052 18.3928C56.1474 18.2449 56.0252 18.0763 55.9345 17.8801C55.8497 17.6957 55.7915 17.4887 55.757 17.2896C55.7412 17.1979 55.7403 17.1062 55.7146 17.0165C55.6929 16.9386 55.7067 16.8696 55.6249 16.8203C55.5421 16.77 55.4267 16.836 55.4287 16.9346Z" fill="#F48534"/>
<path d="M55.5746 17.4837C55.4642 17.5123 55.3676 17.5873 55.269 17.6444C55.1704 17.7016 55.0728 17.7608 54.9732 17.816C54.7662 17.9313 54.5532 18.0339 54.3482 18.1532C54.1776 18.2517 54.0031 18.3444 53.8306 18.4401C53.6985 18.514 53.5358 18.5968 53.5664 18.7733C53.5831 18.8719 53.6995 18.9281 53.7892 18.9044C53.8927 18.8778 53.9361 18.7792 53.9203 18.6816C53.9193 18.7092 53.9193 18.7398 53.9193 18.7713C53.8779 18.8324 53.869 18.8512 53.8947 18.8265C53.9164 18.8137 53.942 18.7989 53.9676 18.7841C54.0031 18.7634 54.0396 18.7447 54.0761 18.724C54.2663 18.6175 54.4586 18.516 54.6479 18.4075C54.8352 18.301 55.0255 18.2015 55.2098 18.091C55.2976 18.0378 55.3853 17.9836 55.4691 17.9244C55.5657 17.8564 55.6663 17.7943 55.7373 17.6987C55.8181 17.5922 55.687 17.4542 55.5746 17.4837Z" fill="#F48534"/>
<path d="M56.0557 18.3237C55.9758 18.3415 55.9039 18.3858 55.8319 18.4243C55.7491 18.4686 55.6663 18.511 55.5825 18.5544C55.4168 18.6392 55.2541 18.7329 55.0915 18.8236C54.7839 18.9951 54.4654 19.1489 54.1628 19.3303C53.9616 19.4516 54.1381 19.7552 54.3442 19.6448C54.6557 19.4792 54.9682 19.3175 55.2778 19.1469C55.4306 19.0622 55.5785 18.9665 55.7264 18.8748C55.8062 18.8255 55.8831 18.7713 55.96 18.7181C56.036 18.6668 56.1247 18.6165 56.1819 18.5446C56.2637 18.445 56.1917 18.2951 56.0557 18.3237Z" fill="#F48534"/>
<path d="M53.0478 18.5337C53.103 18.6027 53.1888 18.6451 53.2627 18.6905C53.3406 18.7388 53.4224 18.7861 53.4954 18.8413C53.6295 18.9429 53.7468 19.0868 53.8385 19.2268C53.9262 19.3619 53.941 19.5285 53.9489 19.6852C53.9528 19.7661 53.9568 19.8469 53.942 19.9268C53.9252 20.0175 53.8858 20.0964 53.8789 20.19C53.8671 20.3665 54.084 20.4207 54.1973 20.3221C54.3551 20.1841 54.359 19.911 54.3462 19.7188C54.3324 19.4999 54.2999 19.2879 54.1973 19.0908C54.1017 18.9084 53.9272 18.7368 53.7645 18.6116C53.6748 18.5426 53.5802 18.4884 53.4776 18.443C53.38 18.4006 53.2735 18.3385 53.1681 18.3218C53.0389 18.3011 52.9669 18.4322 53.0478 18.5337Z" fill="#F48534"/>
<path d="M59.3417 31.0762C59.4718 31.5445 59.7262 32.0068 59.5596 32.5037C59.4413 32.8557 59.1593 33.2195 58.7738 33.2865C58.5717 33.321 58.3805 33.2215 58.2996 33.0341C58.2198 32.8488 58.2651 32.6339 58.4002 32.488C58.5382 32.3391 58.7541 32.3825 58.898 32.4949C58.9809 32.5599 59.0292 32.6506 59.0607 32.7492C59.0942 32.8527 59.0666 32.9513 59.0292 33.0479C58.9858 33.1613 58.9069 33.2215 58.828 33.3102C58.7452 33.4029 58.834 33.5724 58.9592 33.5478C59.2007 33.5005 59.3092 33.2737 59.3772 33.0598C59.4551 32.8153 59.3792 32.5373 59.2165 32.343C59.0548 32.1518 58.8014 32.0345 58.549 32.063C58.3154 32.0897 58.13 32.2553 58.0216 32.4544C57.9053 32.6664 57.9072 32.9336 57.9969 33.1544C58.0916 33.3871 58.2947 33.5379 58.5342 33.5951C58.97 33.6996 59.4038 33.3733 59.6355 33.0351C59.8346 32.7463 59.9293 32.4189 59.9155 32.069C59.9007 31.6864 59.7558 31.2822 59.5606 30.9559C59.532 30.9086 59.462 30.8938 59.4127 30.9135C59.3427 30.9401 59.323 31.0101 59.3417 31.0762Z" fill="#F48534"/>
<path d="M57.781 32.977C57.6509 32.5087 57.3965 32.0463 57.5641 31.5494C57.6824 31.1975 57.9644 30.8337 58.3499 30.7666C58.552 30.7321 58.7433 30.8317 58.8241 31.02C58.904 31.2053 58.8586 31.4203 58.7235 31.5662C58.5855 31.7151 58.3696 31.6717 58.2257 31.5593C58.1419 31.4942 58.0945 31.4035 58.063 31.3049C58.0295 31.2014 58.0571 31.1028 58.0945 31.0062C58.1379 30.8928 58.2168 30.8327 58.2957 30.744C58.3785 30.6513 58.2897 30.4817 58.1645 30.5064C57.923 30.5537 57.8145 30.7804 57.7465 30.9944C57.6686 31.2389 57.7445 31.5169 57.9072 31.7111C58.0679 31.9024 58.3223 32.0197 58.5747 31.9911C58.8083 31.9645 58.9937 31.7989 59.1021 31.5997C59.2185 31.3877 59.2165 31.1206 59.1268 30.8997C59.0321 30.6671 58.829 30.5162 58.5895 30.459C58.1537 30.3545 57.7209 30.6818 57.4882 31.019C57.2891 31.3079 57.1944 31.6352 57.2082 31.9862C57.223 32.3687 57.3679 32.7729 57.5631 33.0992C57.5917 33.1476 57.6627 33.1614 57.711 33.1416C57.7791 33.113 57.7998 33.043 57.781 32.977Z" fill="#F48534"/>
<path d="M55.9177 45.7946C55.9581 45.765 56.0232 45.7354 56.0567 45.6989C56.0922 45.6595 56.1257 45.6171 56.1553 45.5727C56.2154 45.484 56.246 45.3795 56.2598 45.275C56.2854 45.0729 56.2401 44.8491 56.1306 44.6776C56.0104 44.4873 55.8063 44.3522 55.5835 44.3157C55.3557 44.2783 55.1516 44.3414 54.9693 44.4774C54.6774 44.6953 54.5729 45.1459 54.6972 45.4791C54.8559 45.906 55.339 46.0844 55.756 45.9218C55.8319 45.8922 55.8999 45.8508 55.965 45.8015C56.0389 45.7443 56.0774 45.6842 56.1139 45.5984C56.1592 45.4899 56.0153 45.3953 55.9246 45.4475C55.8516 45.4889 55.7856 45.5422 55.7116 45.5826C55.6416 45.6211 55.5608 45.6319 55.4819 45.6339C55.3291 45.6378 55.2019 45.5856 55.1142 45.4919C55.0471 45.4199 55.0107 45.3006 55.0097 45.1902C55.0077 45.0611 55.0442 44.9546 55.1171 44.8471C55.1773 44.7574 55.2798 44.6953 55.407 44.6716C55.5499 44.645 55.6998 44.7012 55.8033 44.7988C55.9147 44.9043 55.9512 45.0581 55.9492 45.208C55.9482 45.2661 55.9354 45.3253 55.9118 45.3795C55.896 45.415 55.8753 45.4475 55.8546 45.4791C55.827 45.5205 55.8073 45.5619 55.7728 45.5994C55.684 45.694 55.7994 45.8803 55.9177 45.7946Z" fill="#F48534"/>
<path d="M55.7125 45.9257C55.9048 45.9011 56.0852 45.8222 56.2774 45.7926C56.3198 45.7857 56.3829 45.7818 56.45 45.7837C56.4638 45.7837 56.5476 45.7936 56.5022 45.7867C56.5308 45.7906 56.5584 45.7975 56.587 45.8064C56.5979 45.8094 56.6087 45.8143 56.6195 45.8182C56.6343 45.8271 56.6511 45.839 56.6669 45.8508C56.6166 45.8133 56.6659 45.8528 56.6777 45.8656C56.6876 45.8764 56.7053 45.904 56.6718 45.8557C56.6787 45.8656 56.6846 45.8754 56.6895 45.8863C56.7093 45.9247 56.6797 45.8468 56.6955 45.9011C56.6994 45.9159 56.7073 45.9799 56.7014 45.9188C56.7033 45.9375 56.7024 45.9573 56.7024 45.976C56.7014 45.9859 56.7004 45.9957 56.6994 46.0056C56.6925 46.0312 56.6866 46.0519 56.6797 46.0716C56.6757 46.0825 56.6718 46.0923 56.6679 46.1032C56.6452 46.1495 56.6166 46.1939 56.585 46.2363C56.5752 46.2491 56.5663 46.2589 56.5574 46.2688C56.5397 46.2885 56.52 46.3082 56.5003 46.327C56.4796 46.3467 56.4588 46.3644 56.4372 46.3822C56.4263 46.3911 56.4145 46.3999 56.4036 46.4088C56.4431 46.3792 56.3898 46.4177 56.3829 46.4226C56.1493 46.5784 55.9048 46.6286 55.6189 46.6099C55.3734 46.5941 55.1131 46.5074 54.9021 46.3526C54.6409 46.1604 54.4604 45.8754 54.3076 45.5954C54.1243 45.2602 53.9586 44.856 53.6146 44.6549C53.4647 44.5681 53.3001 44.5396 53.1305 44.5593C52.9175 44.5839 52.7864 44.7791 52.6878 44.9477C52.5616 45.1636 52.9077 45.3647 53.0201 45.1439C53.0674 45.0522 53.1078 44.9457 53.2192 44.926C53.302 44.9112 53.3986 44.9635 53.4667 45.0059C53.6786 45.14 53.796 45.4407 53.9152 45.6556C54.1568 46.0943 54.4309 46.5281 54.8814 46.7785C55.4592 47.0999 56.2666 47.0477 56.7546 46.5872C57.0119 46.3447 57.1835 45.9435 56.9488 45.6299C56.8355 45.4781 56.6215 45.4308 56.4431 45.4269C56.1532 45.4209 55.8131 45.5087 55.5804 45.6812C55.5301 45.7187 55.5262 45.8035 55.5538 45.8537C55.5863 45.9159 55.6475 45.9336 55.7125 45.9257Z" fill="#F48534"/>
<path d="M46.3249 55.4819C46.3446 55.6042 46.3427 55.7363 46.2944 55.8526C46.2421 55.9778 46.1553 55.9621 46.0489 55.9078C45.8428 55.8014 45.6811 55.5933 45.5678 55.4238C45.3637 55.1201 45.1616 54.7997 45.0009 54.4704C44.9585 54.3836 44.8382 54.36 44.7593 54.4063C44.6716 54.4566 44.6519 54.5611 44.6943 54.6479C44.7859 54.8352 44.8974 55.0146 45.0048 55.1931C45.1261 55.3942 45.2483 55.5953 45.3962 55.7777C45.6092 56.0399 45.9197 56.3406 46.2875 56.2795C46.4896 56.246 46.5813 56.0459 46.6306 55.8723C46.6818 55.6929 46.6473 55.5066 46.5231 55.3676C46.4373 55.2719 46.3082 55.3755 46.3249 55.4819Z" fill="#F48534"/>
<path d="M45.4988 55.8733C45.5244 56.0242 45.5304 56.2006 45.4643 56.3436C45.4397 56.3978 45.4032 56.4629 45.3391 56.4619C45.276 56.4619 45.205 56.388 45.1636 56.3495C45.0285 56.2233 44.929 56.0567 44.8284 55.9029C44.719 55.7373 44.6184 55.5667 44.5139 55.3981C44.4005 55.2177 44.2132 55.0747 44.0288 54.9742C43.7587 54.8273 43.4472 54.78 43.1475 54.8509C42.9158 54.9062 43.0094 55.2621 43.2401 55.2078C43.5182 55.1418 43.7666 55.2266 43.9914 55.3843C44.0091 55.3981 44.0229 55.409 44.0358 55.4198C44.0565 55.4366 44.0762 55.4543 44.0959 55.473C44.1284 55.5046 44.16 55.5371 44.1886 55.5726C44.1501 55.5253 44.1866 55.5716 44.1945 55.5835C44.2162 55.617 44.2349 55.6525 44.2556 55.686C44.3197 55.7935 44.3877 55.898 44.4557 56.0025C44.5721 56.1809 44.6904 56.3594 44.8264 56.523C44.9595 56.6817 45.1468 56.8257 45.3618 56.8257C45.6023 56.8257 45.7591 56.6058 45.8271 56.4008C45.8922 56.2056 45.8547 55.9867 45.7798 55.8013C45.7108 55.6288 45.4673 55.685 45.4988 55.8733Z" fill="#F48534"/>
<path d="M44.3285 55.6969C44.2911 55.754 44.3078 55.8083 44.3039 55.8714C44.3039 55.8743 44.2901 55.9088 44.2862 55.9216C44.295 55.894 44.2536 55.9621 44.2753 55.9345C44.2704 55.9414 44.2211 55.9808 44.2487 55.9611C44.2309 55.9729 44.2122 55.9828 44.1935 55.9916C44.229 55.9739 44.1757 55.9946 44.1678 55.9976C44.1363 56.0054 44.1984 55.9985 44.1531 55.9976C44.1462 55.9916 44.1343 55.9847 44.1225 55.9778C44.0988 55.9631 44.1511 56.0025 44.1136 55.9709C44.1008 55.9601 44.09 55.9483 44.0781 55.9354C44.0436 55.899 44.0831 55.9453 44.0643 55.9187C44.0407 55.8842 44.0219 55.8467 44.0052 55.8083C44.02 55.8418 43.9983 55.7866 43.9983 55.7856C43.9894 55.761 43.9835 55.7353 43.9766 55.7107C43.9638 55.6604 43.9559 55.6091 43.9509 55.5569C43.9371 55.406 43.947 55.2512 43.9687 55.1014C44.0081 54.8293 44.16 54.5877 44.2507 54.3324C44.2852 54.2358 44.2102 54.1273 44.1176 54.1017C44.014 54.0741 43.9204 54.1382 43.8869 54.2348C43.8346 54.3886 43.7646 54.5355 43.7055 54.6873C43.6374 54.8608 43.6079 55.0334 43.5921 55.2187C43.5684 55.5086 43.5921 55.8457 43.7617 56.0932C43.876 56.2608 44.0594 56.3801 44.2664 56.3269C44.3946 56.2943 44.503 56.2066 44.573 56.0971C44.6145 56.0311 44.6312 55.9502 44.6243 55.8733C44.6154 55.7649 44.5839 55.6771 44.4774 55.6338C44.4222 55.6111 44.3591 55.6515 44.3285 55.6969Z" fill="#F48534"/>
<path d="M46.9885 55.4277C46.9806 55.5421 46.9934 55.7038 46.887 55.7412C46.9294 55.7255 46.957 55.7383 46.9885 55.7531C46.9639 55.7373 46.9392 55.7107 46.9156 55.685C46.883 55.6496 46.8515 55.6141 46.8219 55.5776C46.8041 55.5559 46.7864 55.5342 46.7696 55.5125C46.7647 55.5066 46.7342 55.4672 46.7627 55.5046C46.7529 55.4928 46.744 55.48 46.7341 55.4672C46.6503 55.3567 46.5705 55.2434 46.4916 55.129C46.2343 54.7563 45.9859 54.3758 45.7512 53.9883C45.6615 54.0573 45.5718 54.1273 45.4821 54.1963C45.5038 54.2249 45.5383 54.2368 45.5708 54.2476C45.6595 54.2762 45.7581 54.2131 45.7808 54.1264C45.8064 54.0307 45.7473 53.9489 45.6595 53.9164C45.6566 53.9154 45.6536 53.9144 45.6507 53.9134C45.6852 53.94 45.7207 53.9666 45.7552 53.9933C45.624 53.8119 45.344 53.9617 45.4535 54.1599C45.6842 54.5759 45.9494 54.9782 46.2175 55.3705C46.3585 55.5766 46.5015 55.8014 46.6839 55.9749C46.747 56.035 46.8318 56.1031 46.9244 56.0971C47.1591 56.0843 47.2951 55.8438 47.3109 55.6358C47.3188 55.5381 47.2991 55.4425 47.2577 55.3548C47.1916 55.2167 46.9974 55.2956 46.9885 55.4277Z" fill="#F48534"/>
<path d="M33.8318 58.761C33.8851 58.7788 33.7865 58.7482 33.7658 58.7452C33.7175 58.7383 33.6702 58.7334 33.6209 58.7314C33.5045 58.7265 33.3882 58.7236 33.2719 58.7226C33.1565 58.7216 32.7829 58.7127 32.77 58.7127C32.7168 58.7098 32.8154 58.7275 32.8262 58.7324C32.7454 58.694 32.6498 58.7088 32.6015 58.7916C32.5591 58.8636 32.5788 58.9779 32.6596 59.0164C32.7267 59.0479 32.7996 59.042 32.8716 59.041C32.9869 59.04 33.1023 59.0371 33.2176 59.0351C33.3428 59.0321 33.4671 59.0302 33.5913 59.0223C33.6465 59.0183 33.7007 59.0154 33.7549 59.0065C33.7697 59.0035 33.7845 59.0016 33.7993 58.9986C33.8171 58.9957 33.8802 58.969 33.8309 58.9868C33.9413 58.9464 33.9452 58.7985 33.8318 58.761Z" fill="#F48534"/>
<path d="M32.5817 58.8369C32.5669 58.9325 32.5955 59.0291 32.5778 59.1258C32.559 59.2332 32.5098 59.3279 32.4496 59.4166C32.3303 59.5941 32.1351 59.7094 31.9212 59.7272C31.8285 59.735 31.7496 59.7991 31.7496 59.8987C31.7496 59.9864 31.8275 60.0771 31.9212 60.0702C32.2613 60.0446 32.5285 59.8819 32.7267 59.6088C32.8105 59.4935 32.8716 59.3545 32.8992 59.2145C32.9268 59.0745 32.9307 58.8803 32.8203 58.7738C32.7513 58.7048 32.5995 58.7255 32.5817 58.8369Z" fill="#F48534"/>
<path d="M30.0125 58.9858C29.9592 58.967 30.0578 58.9996 30.0785 59.0025C30.1317 59.0114 30.184 59.0153 30.2372 59.0193C30.3605 59.0272 30.4837 59.0301 30.6079 59.0331C30.7253 59.0361 30.8426 59.038 30.9589 59.039C31.0338 59.04 31.1137 59.0469 31.1837 59.0144C31.2645 58.9759 31.2843 58.8615 31.2428 58.7896C31.1945 58.7077 31.0989 58.693 31.0181 58.7304C31.021 58.7285 31.1236 58.7077 31.0802 58.7107C31.0683 58.7117 31.0565 58.7117 31.0447 58.7127C31.0072 58.7137 30.3546 58.7245 30.2372 58.7294C30.187 58.7314 30.1377 58.7344 30.0874 58.7423C30.0726 58.7442 30.0578 58.7472 30.044 58.7492C30.0272 58.7521 29.9622 58.7768 30.0125 58.76C29.8991 58.7985 29.902 58.9463 30.0125 58.9858Z" fill="#F48534"/>
<path d="M31.023 58.7738C30.9106 58.8832 30.9215 59.0725 30.9441 59.2145C30.9668 59.3555 31.0368 59.4925 31.1167 59.6088C31.3069 59.8839 31.5879 60.0446 31.9221 60.0702C32.0158 60.0771 32.0937 59.9864 32.0937 59.8987C32.0937 59.7991 32.0158 59.735 31.9221 59.7272C31.7043 59.7094 31.5189 59.5931 31.3937 59.4166C31.3355 59.3348 31.2951 59.247 31.2715 59.1504C31.2448 59.0459 31.2784 58.9404 31.2626 58.8369C31.2448 58.7255 31.093 58.7048 31.023 58.7738Z" fill="#F48534"/>
<path d="M33.8436 58.1093C33.673 58.059 33.4798 58.0768 33.3043 58.0787C33.0184 58.0817 30.3072 58.127 30.1396 58.128C29.904 58.129 29.904 58.4948 30.1396 58.4938C30.5064 58.4928 30.8741 58.4711 31.2409 58.4593C31.862 58.4386 33.396 58.3893 33.5409 58.3814C33.6435 58.3765 33.745 58.3745 33.8436 58.3449C33.9599 58.3104 33.9599 58.1438 33.8436 58.1093Z" fill="#F48534"/>
<path d="M19.2496 56.0508C19.1194 56.0755 18.9893 56.1445 18.8651 56.1928C18.7862 56.2233 18.7113 56.2588 18.6304 56.2835C18.5959 56.2943 18.5141 56.3259 18.4884 56.2904C18.3908 56.1603 18.4746 55.9907 18.5368 55.8665C18.5811 55.7777 18.6156 55.6841 18.66 55.5953C18.7063 55.5017 18.7645 55.4139 18.8187 55.3242C18.9282 55.1468 19.0258 54.9604 19.1273 54.779C19.221 54.6114 19.3215 54.4478 19.4112 54.2772C19.4457 54.2121 19.4388 54.1323 19.3856 54.079C19.3284 54.0209 19.2072 54.0061 19.152 54.0771C19.01 54.2595 18.9094 54.4803 18.796 54.6814C18.7438 54.7751 18.6915 54.8697 18.6383 54.9634C18.5446 55.129 18.4372 55.2877 18.3524 55.4583C18.3041 55.5559 18.2637 55.6584 18.2163 55.756C18.1661 55.8596 18.1217 55.968 18.1109 56.0833C18.0931 56.2756 18.1641 56.5063 18.3485 56.596C18.5397 56.6887 18.7625 56.5783 18.9351 56.4915C19.079 56.4195 19.2988 56.3702 19.3738 56.2145C19.4162 56.1238 19.3472 56.0331 19.2496 56.0508Z" fill="#F48534"/>
<path d="M18.3059 55.687C18.1383 55.755 18.0112 55.8901 17.815 55.8369C17.7548 55.8211 17.7114 55.7698 17.6868 55.7274C17.6582 55.6791 17.6533 55.6289 17.6523 55.5677C17.6513 55.4465 17.7036 55.2976 17.7489 55.1931C17.8307 55.0068 17.9392 54.8323 18.0378 54.6558C18.1581 54.4409 18.2783 54.2259 18.3957 54.01C18.4942 53.8296 18.584 53.6285 18.5721 53.4185C18.5593 53.1848 18.3917 53.0251 18.1748 52.964C17.9599 52.9038 17.7529 52.9837 17.5783 53.1079C17.4186 53.2223 17.5557 53.4816 17.7321 53.3781C17.8544 53.3071 18.0457 53.2302 18.1758 53.3327C18.3049 53.4352 18.1866 53.664 18.1304 53.7764C17.9214 54.1914 17.6533 54.5789 17.4591 55.0008C17.3289 55.2818 17.2195 55.6486 17.4078 55.9305C17.5251 56.106 17.7272 56.2046 17.9372 56.1928C18.1561 56.18 18.3848 56.0518 18.4558 55.8359C18.4844 55.755 18.3907 55.6525 18.3059 55.687Z" fill="#F48534"/>
<path d="M18.031 53.4274C17.9945 53.3219 17.891 53.3101 17.7964 53.2795C17.751 53.2647 17.6652 53.2667 17.6396 53.2322C17.6504 53.2519 17.6623 53.2716 17.6731 53.2923C17.6721 53.3022 17.6712 53.311 17.6712 53.3199C17.6771 53.3081 17.684 53.2972 17.6909 53.2864C17.7096 53.2558 17.7254 53.2243 17.7421 53.1927C17.7776 53.1277 17.821 53.0675 17.8604 53.0044C17.9452 52.8684 17.7559 52.7343 17.6445 52.8368C17.5607 52.9147 17.5095 53.0202 17.4631 53.1227C17.4188 53.2203 17.3636 53.3258 17.4483 53.4215C17.5035 53.4836 17.5883 53.5043 17.6662 53.5191C17.755 53.5358 17.8397 53.5625 17.9304 53.5595C17.9935 53.5585 18.0537 53.4934 18.031 53.4274Z" fill="#F48534"/>
<path d="M19.4654 56.802C19.4013 56.8346 19.3441 56.8701 19.2781 56.8878C19.2515 56.8947 19.2179 56.8986 19.2012 56.8967C19.1529 56.8888 19.1322 56.8454 19.1647 56.9006C19.1706 56.9105 19.1825 56.9923 19.1834 56.9578C19.1913 56.9253 19.2041 56.8898 19.2179 56.8543C19.2258 56.8336 19.2525 56.7685 19.2574 56.7557C19.282 56.6975 19.3086 56.6403 19.3353 56.5841C19.3964 56.455 19.4605 56.3278 19.5265 56.2006C19.7553 55.7609 19.9938 55.3469 20.2364 54.914C20.2403 54.9062 20.2413 54.9042 20.2413 54.9042C20.3586 54.7021 20.0609 54.5305 19.9445 54.7326C19.7109 55.1369 19.4841 55.5125 19.2643 55.9187C19.1361 56.1553 19.0129 56.3879 18.9094 56.6364C18.8749 56.7192 18.8394 56.803 18.8275 56.8927C18.8058 57.0603 18.8877 57.1629 19.0494 57.222C19.2732 57.3038 19.5305 57.1846 19.6626 56.9982C19.7493 56.876 19.5827 56.7429 19.4654 56.802Z" fill="#F48534"/>
<path d="M10.972 45.9681C10.8724 45.9444 10.7758 45.9001 10.6782 45.8695C10.4613 45.8015 10.2454 45.7295 10.0275 45.6654C9.45866 45.4988 7.19407 44.8195 7.18717 44.8166C7.16745 44.8097 7.29759 44.858 7.17534 44.8116C7.0797 44.7752 6.97126 44.8531 6.94661 44.9438C6.91802 45.0492 6.98309 45.136 7.07872 45.1725C7.16646 45.206 7.26209 45.2267 7.3528 45.2543C7.56575 45.3174 10.2454 46.0884 10.5214 46.1574C10.6565 46.1909 10.7965 46.2313 10.9355 46.2412C11.0942 46.251 11.1248 46.0036 10.972 45.9681Z" fill="#F48534"/>
<path d="M7.86446 45.6418C7.83784 45.5846 7.79446 45.5412 7.75305 45.4939C7.67122 45.4022 7.58151 45.3174 7.49475 45.2306C7.36856 45.1045 7.24236 44.9792 7.1142 44.855C7.08856 44.9507 7.06293 45.0453 7.0373 45.1409C7.37053 45.0552 7.70376 44.9684 8.03699 44.8836C8.24896 44.8294 8.1622 44.5021 7.9522 44.5563C7.61897 44.6421 7.28574 44.7269 6.95251 44.8116C6.8273 44.8432 6.78294 45.0069 6.87561 45.0976C7.00378 45.2218 7.13293 45.344 7.26208 45.4673C7.34785 45.5481 7.43165 45.6339 7.52236 45.7098C7.57264 45.7522 7.62094 45.7995 7.68207 45.8261C7.80629 45.8784 7.92263 45.768 7.86446 45.6418Z" fill="#F48534"/>
<path d="M9.56408 46.3604C9.61042 46.2855 9.63408 46.1978 9.66563 46.115C9.70901 46.0016 9.74844 45.8872 9.78886 45.7719C9.82731 45.6634 9.92985 45.3667 9.94365 45.3272C9.95647 45.2917 9.97815 45.2602 9.94661 45.3164C10.0679 45.0995 9.72872 44.9053 9.6114 45.1251C9.57986 45.1843 9.56211 45.2563 9.54239 45.3193C9.50591 45.4317 9.47437 45.5451 9.4438 45.6595C9.41028 45.7827 9.37676 45.906 9.3531 46.0312C9.33437 46.1298 9.30874 46.2293 9.32845 46.3289C9.35014 46.4452 9.50887 46.4502 9.56408 46.3604Z" fill="#F48534"/>
<path d="M4.07082 32.8793C4.01266 32.837 3.95547 32.8074 3.91012 32.7512C3.90224 32.7423 3.89632 32.7206 3.89534 32.7078C3.89534 32.6802 3.89534 32.6733 3.89632 32.6881C3.87759 32.7088 3.95055 32.6634 3.92984 32.6713C3.96139 32.6595 3.99392 32.6526 4.02744 32.6467C4.11322 32.6289 4.20096 32.6181 4.28772 32.6053C4.73926 32.5363 5.20755 32.5944 5.66303 32.5865C5.64825 32.4741 5.63247 32.3618 5.61768 32.2494C5.58219 32.2543 5.55459 32.277 5.52895 32.3006C5.45994 32.3637 5.46487 32.4791 5.52895 32.5432C5.59895 32.6141 5.69951 32.6033 5.77148 32.5432C5.77345 32.5412 5.77641 32.5392 5.77838 32.5372C5.73796 32.554 5.69754 32.5708 5.65712 32.5875C5.88092 32.5648 5.88979 32.2494 5.66402 32.2434C5.3722 32.2356 5.08037 32.2218 4.78855 32.2188C4.50461 32.2158 4.23054 32.2454 3.95054 32.2898C3.73266 32.3243 3.55323 32.4495 3.53943 32.6841C3.52366 32.9355 3.7652 33.1406 4.00083 33.1505C4.15364 33.1554 4.1773 32.9572 4.07082 32.8793Z" fill="#F48534"/>
<path d="M4.44144 32.2642C4.28074 32.1863 4.06483 32.136 3.95836 31.9802C3.85188 31.8245 3.95737 31.6795 4.11413 31.6184C4.35666 31.5247 4.63665 31.5494 4.89101 31.5563C5.14734 31.5632 5.4017 31.577 5.65507 31.5316C5.85619 31.4961 6.05436 31.4183 6.15689 31.229C6.27224 31.014 6.19928 30.7567 6.01985 30.6029C5.83943 30.4472 5.57817 30.4117 5.3879 30.5694C5.24297 30.6897 5.18382 30.9017 5.20649 31.084C5.23213 31.2911 5.35043 31.4725 5.52888 31.5799C5.73296 31.7022 5.98633 31.6716 6.21309 31.6884C6.40139 31.7022 6.57195 31.7604 6.70899 31.8935C6.76814 31.9516 6.82138 32.0236 6.85391 32.1005C6.89532 32.1991 6.89532 32.2888 6.89434 32.3943C6.89138 32.6299 7.26207 32.6299 7.2601 32.3943C7.25714 32.1261 7.1901 31.9063 7.01954 31.6963C6.86082 31.4991 6.62322 31.3828 6.37674 31.3424C6.25449 31.3226 6.13027 31.3167 6.00605 31.3128C5.90253 31.3098 5.77436 31.3147 5.68662 31.2467C5.61859 31.1935 5.57817 31.1195 5.56338 31.0357C5.5693 31.0683 5.56437 31.0062 5.56437 31.0062C5.56437 31.0071 5.56831 30.944 5.56437 30.9746C5.57127 30.9233 5.57817 30.9046 5.5969 30.8711C5.60775 30.8514 5.61761 30.8405 5.63535 30.8297C5.67282 30.807 5.62057 30.8317 5.66395 30.8198C5.6393 30.8257 5.70338 30.8198 5.70141 30.8198C5.77929 30.8208 5.83943 30.8957 5.87098 30.9579C5.95281 31.1146 5.72113 31.1974 5.61465 31.2211C5.52691 31.2408 5.42635 31.227 5.33663 31.228C5.18776 31.229 5.03791 31.224 4.88904 31.2191C4.61792 31.2093 4.34088 31.2043 4.07666 31.2763C3.75033 31.365 3.47823 31.6746 3.60837 32.0236C3.7247 32.3361 4.06286 32.482 4.37342 32.5156C4.50553 32.5284 4.55679 32.3213 4.44144 32.2642Z" fill="#F48534"/>
<path d="M7.81418 19.9929C7.71559 19.8164 7.6032 19.6458 7.55095 19.4477C7.53222 19.3777 7.52827 19.285 7.55588 19.216C7.56968 19.1815 7.56869 19.1923 7.59334 19.1963C7.64559 19.2051 7.69587 19.2505 7.73629 19.2811C7.83291 19.355 7.93249 19.426 8.05277 19.4536C8.19375 19.4851 8.32191 19.3954 8.38205 19.2742C8.4836 19.0691 8.39684 18.799 8.31698 18.6008C8.24797 18.4283 8.14445 18.2449 8.16516 18.0526C8.1691 18.0211 8.17797 17.9856 8.19079 17.9688C8.24206 17.9028 8.20262 17.956 8.20656 17.9541C8.22924 17.956 8.24896 17.9698 8.26966 17.9846C8.31205 18.0162 8.35248 18.0507 8.3929 18.0842C8.5743 18.237 8.83458 18.3139 9.01204 18.1049C9.17372 17.9136 9.11753 17.6307 9.03175 17.4207C8.98936 17.3172 8.93809 17.2176 8.9026 17.1111C8.8888 17.0687 8.88288 17.0352 8.8819 16.9899C8.88288 17.0184 8.89176 16.9524 8.89176 16.9544C8.88584 16.9731 8.88781 16.9711 8.89767 16.9484C8.93415 16.9021 8.87598 16.9593 8.92035 16.9297C8.9588 16.9218 8.97852 16.9307 9.02682 16.9524C9.16189 17.0135 9.26245 17.1111 9.40935 17.1476C9.63413 17.2038 9.72681 16.8755 9.53357 16.773C9.30484 16.6517 9.09189 16.4575 8.81289 16.5324C8.57529 16.5965 8.45304 16.8351 8.47275 17.0687C8.49149 17.2945 8.63148 17.4858 8.69162 17.6997C8.69852 17.7243 8.70444 17.7815 8.70345 17.7943C8.70345 17.7963 8.68669 17.8643 8.70049 17.8269C8.68176 17.8791 8.72317 17.8062 8.69064 17.8466C8.69852 17.8377 8.74387 17.821 8.70345 17.8348C8.71923 17.8288 8.75078 17.8348 8.71035 17.8249C8.68571 17.8062 8.66402 17.7884 8.64134 17.7707C8.45895 17.6277 8.25191 17.5094 8.02713 17.6376C7.81122 17.7608 7.77869 18.0319 7.8201 18.2548C7.85953 18.4697 7.96995 18.657 8.03896 18.8621C8.06657 18.9449 8.08629 19.0366 8.07051 19.1233C8.06755 19.1371 8.04291 19.1529 8.08136 19.1204C8.09713 19.1066 8.10896 19.1164 8.08431 19.1066C8.03206 19.0849 7.98277 19.0474 7.93643 19.0159C7.79742 18.9183 7.6239 18.8236 7.45137 18.8936C7.28081 18.9626 7.22265 19.1519 7.22067 19.3205C7.21574 19.633 7.40701 19.9071 7.58348 20.1477C7.68897 20.2946 7.90094 20.1496 7.81418 19.9929Z" fill="#F48534"/>
<path d="M9.01491 20.9098C8.92027 20.683 8.77337 20.478 8.74675 20.2276C8.7438 20.2009 8.74577 20.1842 8.7507 20.1585C8.75365 20.1418 8.76943 20.1418 8.74084 20.1556C8.75858 20.1477 8.7852 20.1585 8.80393 20.1654C8.88281 20.197 8.95379 20.2512 9.02773 20.2916C9.2328 20.4011 9.498 20.3833 9.59659 20.1408C9.69912 19.8884 9.568 19.6064 9.4911 19.3669C9.45265 19.2476 9.40927 19.1322 9.37969 19.011C9.36983 18.9696 9.36885 18.9281 9.37772 18.8867C9.37575 18.8956 9.36786 18.9045 9.38857 18.8808C9.38462 18.8877 9.37871 18.8917 9.37082 18.8927C9.39152 18.8867 9.3935 18.8848 9.37674 18.8867C9.42406 18.8769 9.42307 18.8828 9.46251 18.8907C9.50392 18.8986 9.498 18.8986 9.54434 18.9203C9.65969 18.9745 9.75236 19.0504 9.88644 19.0534C10.1802 19.0603 10.2561 18.731 10.2088 18.5022C10.1871 18.3977 10.1408 18.3041 10.0935 18.2104C10.059 18.1404 10.0057 18.03 9.99686 17.9817C9.98503 17.9196 9.98602 17.8723 9.9939 17.8279C9.99588 17.8151 9.99883 17.8023 10.0028 17.7894C9.9939 17.8249 10.0126 17.7717 10.0146 17.7678C10.0462 17.7283 9.99193 17.7786 10.0333 17.754C10.0038 17.7717 10.0274 17.7599 10.0274 17.7599C10.0718 17.7638 10.1112 17.7806 10.1516 17.7993C10.2502 17.8447 10.3409 17.9097 10.4326 17.9669C10.5253 18.0251 10.6564 17.9649 10.7008 17.8752C10.753 17.7687 10.7008 17.6672 10.6091 17.6071C10.4021 17.473 10.1378 17.3083 9.88348 17.4089C9.67349 17.4917 9.60842 17.7224 9.61335 17.9285C9.61927 18.1355 9.73363 18.3011 9.8125 18.4845C9.82827 18.521 9.84405 18.5614 9.84996 18.6008C9.85391 18.6255 9.85391 18.6501 9.85391 18.6748C9.85391 18.657 9.84306 18.7113 9.85292 18.6836C9.84306 18.7132 9.84306 18.7034 9.85686 18.6925C9.87658 18.6767 9.89926 18.6856 9.87954 18.6777C9.8263 18.656 9.77701 18.6206 9.72673 18.5939C9.55814 18.5032 9.32448 18.4687 9.16181 18.59C8.93013 18.7625 9.00308 19.0711 9.07998 19.3038C9.11942 19.425 9.16477 19.5453 9.20716 19.6656C9.24364 19.7691 9.28012 19.8904 9.2604 20.0008C9.29491 19.9959 9.2397 19.989 9.23674 19.989C9.26829 19.9969 9.20815 19.9742 9.20815 19.9742C9.12829 19.9377 9.05829 19.8835 8.97942 19.847C8.85421 19.7888 8.71126 19.777 8.58704 19.8391C8.43423 19.916 8.39183 20.0954 8.40366 20.2522C8.42634 20.5381 8.59197 20.8605 8.80196 21.0527C8.89562 21.1405 9.06717 21.035 9.01491 20.9098Z" fill="#F48534"/>
<path d="M16.9592 7.79149C17.0529 7.89994 17.1623 7.99853 17.2619 8.10205C17.3674 8.21246 17.4778 8.31795 17.5794 8.43232C17.7795 8.65907 17.952 8.91639 18.1108 9.17371C18.2705 9.43201 18.4134 9.70214 18.5169 9.98805C18.5672 10.1261 18.6057 10.2671 18.6392 10.409C18.655 10.4771 18.6678 10.5461 18.6786 10.6161C18.6915 10.7008 18.6934 10.7817 18.7447 10.8546C18.8255 10.969 18.9754 10.971 19.0543 10.8537C19.1499 10.7127 19.0947 10.5145 19.0641 10.3597C19.0345 10.2069 18.9931 10.0571 18.9409 9.91115C18.8245 9.58975 18.6658 9.28511 18.4815 8.99723C18.301 8.71428 18.097 8.4333 17.8534 8.20063C17.7351 8.08726 17.608 7.98275 17.4788 7.88121C17.3506 7.78065 17.2185 7.66135 17.0559 7.62192C16.9533 7.59727 16.8952 7.71656 16.9592 7.79149Z" fill="#F48534"/>
<path d="M18.3356 6.88445C18.2913 7.0343 18.3248 7.18909 18.3435 7.34092C18.3632 7.50556 18.3938 7.6702 18.4303 7.83189C18.5042 8.16118 18.6481 8.47469 18.798 8.77637C18.9508 9.08298 19.1381 9.36988 19.3531 9.63508C19.4516 9.75733 19.5621 9.86676 19.6784 9.97225C19.7997 10.0827 19.9574 10.2424 20.1329 10.2296C20.2739 10.2197 20.3478 10.0886 20.2887 9.96141C20.2305 9.8362 20.0777 9.75832 19.9771 9.66761C19.8697 9.57001 19.7691 9.46551 19.6735 9.35607C19.4733 9.12735 19.3107 8.86707 19.1657 8.60088C19.0208 8.33469 18.8848 8.05864 18.7842 7.77273C18.7329 7.62781 18.6925 7.47993 18.6541 7.33204C18.6156 7.18416 18.5791 7.02839 18.5279 6.88346C18.4973 6.79177 18.3652 6.7829 18.3356 6.88445Z" fill="#F48534"/>
<path d="M17.5764 9.49214C17.5764 9.57693 17.677 9.64397 17.7568 9.64495C17.8288 9.64594 17.9126 9.60552 17.9708 9.56608C18.0408 9.51679 18.1226 9.47439 18.1926 9.4251C18.3385 9.32158 18.5041 9.23482 18.6599 9.14708C18.8226 9.05638 18.9912 8.97356 19.1568 8.88878C19.2406 8.8454 19.3264 8.803 19.4102 8.7616C19.4466 8.74286 19.4851 8.7261 19.5226 8.70934C19.5285 8.70639 19.6073 8.67582 19.5748 8.6847C19.8252 8.61864 19.7237 8.2302 19.4733 8.29626C19.4013 8.31499 19.3343 8.3564 19.2672 8.38794C19.1844 8.42639 19.1026 8.46879 19.0207 8.51019C18.8443 8.6009 18.6698 8.69357 18.4982 8.79315C18.3415 8.88385 18.1877 8.97849 18.0378 9.07905C17.9609 9.13032 17.8919 9.19144 17.8219 9.2506C17.7618 9.30088 17.7006 9.35412 17.6612 9.42313C17.7292 9.4044 17.7963 9.38665 17.8633 9.36792C17.8623 9.36693 17.8268 9.36595 17.8268 9.36595C17.7322 9.31172 17.5764 9.38172 17.5764 9.49214Z" fill="#F48534"/>
<path d="M38.6646 29.6683C39.2137 29.9868 39.6426 30.4265 39.9502 30.9865C40.2578 31.5464 40.4116 32.1784 40.4116 32.8813C40.4116 33.672 40.2381 34.3898 39.893 35.0326C39.547 35.6754 39.0659 36.1811 38.4507 36.5488C37.8355 36.9176 37.1483 37.1009 36.3902 37.1009C35.7533 37.1009 35.1844 36.9964 34.6846 36.7874C34.1847 36.5784 33.7973 36.2955 33.5222 35.9386C33.2471 35.5817 33.1101 35.1775 33.1101 34.7269C33.1101 34.3207 33.3024 33.9826 33.6869 33.7134C34.0713 33.4443 34.6047 33.3092 35.286 33.3092C35.2199 33.6385 35.1874 33.9796 35.1874 34.3306C35.1874 34.9133 35.3195 35.4161 35.5827 35.839C35.8459 36.262 36.1654 36.4739 36.538 36.4739C36.8565 36.4739 37.1394 36.3172 37.3869 36.0046C37.6344 35.6911 37.8266 35.2632 37.9636 34.719C38.1007 34.1748 38.1697 33.5626 38.1697 32.8813C38.1697 32.3214 38.0869 31.8047 37.9222 31.3325C37.7576 30.8603 37.5407 30.4896 37.2715 30.2194C37.0024 29.9503 36.7135 29.8152 36.4059 29.8152C36.1309 29.8152 35.8972 29.9217 35.705 30.1366C35.5127 30.3506 35.2791 30.6887 35.004 31.1501C34.7072 31.6559 34.4273 32.0759 34.164 32.4111C33.8998 32.7463 33.5459 33.0371 33.1012 33.2846C32.6566 33.532 32.1094 33.6612 31.4617 33.672C31.8137 34.1561 31.9891 34.7052 31.9891 35.3204C31.9891 35.8587 31.8018 36.3566 31.4292 36.8121C31.0555 37.2685 30.5468 37.6284 29.905 37.8916C29.2622 38.1558 28.5563 38.287 27.7873 38.287C27.0617 38.287 26.4139 38.1825 25.8421 37.9735C25.2703 37.7645 24.8286 37.4815 24.5151 37.1246C24.2016 36.7677 24.0458 36.3635 24.0458 35.9129C24.0458 35.5068 24.241 35.1686 24.6305 34.8995C25.0199 34.6303 25.5562 34.4952 26.2375 34.4952C26.1606 34.8028 26.1221 35.144 26.1221 35.5176C26.1221 36.0776 26.2808 36.5587 26.6003 36.96C26.9187 37.3612 27.3141 37.5614 27.7873 37.5614C28.4025 37.5614 28.8747 37.3504 29.204 36.9264C29.5333 36.5035 29.6989 35.9682 29.6989 35.3194C29.6989 34.8689 29.5865 34.4597 29.3618 34.092C29.136 33.7243 28.8284 33.4325 28.439 33.2185C28.0485 33.0046 27.6236 32.8971 27.1612 32.8971C26.689 32.8971 26.2601 32.9632 25.8756 33.0943L26.4031 32.1222C27.249 32.1222 27.8948 31.9388 28.3394 31.5701C28.784 31.2024 29.0068 30.672 29.0068 29.9799C29.0068 29.5954 28.8856 29.274 28.644 29.0157C28.4025 28.7574 28.1057 28.6282 27.7538 28.6282C27.3466 28.6282 27.0065 28.7376 26.7314 28.9575C26.4563 29.1774 26.3193 29.4573 26.3193 29.7985C26.3193 30.1504 26.4563 30.4472 26.7314 30.6887C26.5342 30.9303 26.3085 31.1146 26.0561 31.2408C25.8037 31.367 25.5454 31.4301 25.2812 31.4301C24.9952 31.4301 24.7507 31.3286 24.5477 31.1255C24.3446 30.9224 24.243 30.6335 24.243 30.2599C24.243 29.8537 24.3998 29.4771 24.7133 29.131C25.0268 28.785 25.4517 28.5109 25.99 28.3068C26.5283 28.1037 27.1159 28.0022 27.7538 28.0022C28.4459 28.0022 29.0611 28.0899 29.5994 28.2654C30.1376 28.4419 30.5557 28.6805 30.8524 28.9821C31.1492 29.2848 31.2971 29.6171 31.2971 29.9789C31.2971 30.4511 31.0831 30.8967 30.6543 31.3138C30.2254 31.7318 29.621 32.0502 28.8412 32.2701C29.5225 32.3578 30.116 32.5668 30.6207 32.8961C30.8514 32.9947 31.0545 33.044 31.231 33.044C31.5278 33.044 31.7861 32.9346 32.0059 32.7147C32.2258 32.4949 32.5008 32.1488 32.8301 31.6766C33.1929 31.16 33.5252 30.737 33.8268 30.4077C34.1285 30.0785 34.5268 29.7925 35.0217 29.551C35.5167 29.3095 36.1043 29.1882 36.7855 29.1882C37.4884 29.1902 38.1155 29.3499 38.6646 29.6683ZM31.8245 27.5585C31.1985 27.1415 30.7804 26.5647 30.5714 25.8283L32.351 25.1855C32.4722 25.8667 32.7167 26.4001 33.0845 26.7836C33.4522 27.1681 33.8949 27.3604 34.4115 27.3604C35.0158 27.3604 35.5295 27.177 35.9524 26.8083C36.3754 26.4405 36.6968 25.8993 36.9166 25.1845L37.312 25.4645C37.0704 26.3548 36.6554 27.0301 36.0678 27.4915C35.4802 27.9529 34.7901 28.1836 33.9994 28.1836C33.1762 28.1855 32.4505 27.9765 31.8245 27.5585ZM33.7283 26.2571C33.4808 26.0156 33.3576 25.7248 33.3576 25.3837C33.3576 25.0317 33.4808 24.7359 33.7283 24.4934C33.9757 24.2518 34.2695 24.1306 34.6096 24.1306C34.9616 24.1306 35.2584 24.2518 35.4999 24.4934C35.7414 24.7349 35.8627 25.0317 35.8627 25.3837C35.8627 25.7248 35.7395 26.0156 35.492 26.2571C35.2446 26.4987 34.9508 26.62 34.6096 26.62C34.2685 26.62 33.9757 26.4987 33.7283 26.2571Z" fill="white"/>
<path d="M78.7 19.625V32H77.45V18.5C77.45 17.8 77.275 17.25 76.925 16.85C76.5917 16.45 76.0167 16.25 75.2 16.25H75.075V15.5H76.825C77.7583 15.5 78.5167 15.625 79.1 15.875C79.7 16.1083 80.2 16.4833 80.6 17L89.2 27V15.5H90.45V32.075H89.3L78.7 19.625ZM98.2846 32.25C96.9346 32.25 95.8846 31.95 95.1346 31.35C94.4012 30.7333 94.0346 29.9083 94.0346 28.875C94.0346 28.0417 94.2262 27.35 94.6096 26.8C95.0096 26.25 95.7012 25.8333 96.6846 25.55C97.6679 25.2667 99.0346 25.125 100.785 25.125H101.16C101.16 23.675 100.96 22.65 100.56 22.05C100.16 21.4333 99.5679 21.125 98.7846 21.125C98.1346 21.125 97.6012 21.2833 97.1846 21.6C96.7679 21.9167 96.4679 22.5083 96.2846 23.375H94.9096C94.9096 22.8083 94.9429 22.325 95.0096 21.925C95.0929 21.525 95.2679 21.175 95.5346 20.875C96.0512 20.2917 97.3012 20 99.2846 20C100.951 20 102.218 20.4417 103.085 21.325C103.968 22.1917 104.41 23.5 104.41 25.25V32H102.285L101.41 30.875H101.285C101.135 31.1083 100.901 31.3417 100.585 31.575C100.018 32.025 99.2512 32.25 98.2846 32.25ZM99.0346 31C99.3846 31 99.6846 30.9333 99.9346 30.8C100.185 30.65 100.426 30.45 100.66 30.2C100.876 29.9667 101.043 29.6917 101.16 29.375V26.25H100.785C99.6012 26.25 98.7429 26.4667 98.2096 26.9C97.6762 27.3167 97.4096 27.975 97.4096 28.875C97.4096 29.5583 97.5512 30.0833 97.8346 30.45C98.1179 30.8167 98.5179 31 99.0346 31ZM108.712 23.5C108.712 22.65 108.595 22.025 108.362 21.625C108.145 21.2083 107.687 21 106.987 21H106.737V20.25H109.212C110.295 20.25 111.004 20.5667 111.337 21.2H111.437C112.354 20.4 113.404 20 114.587 20C115.404 20 116.112 20.1583 116.712 20.475C117.329 20.775 117.77 21.0917 118.037 21.425C118.437 20.9917 118.912 20.65 119.462 20.4C120.012 20.1333 120.72 20 121.587 20C124.504 20 125.962 21.5333 125.962 24.6V32H122.712V24.575C122.712 23.425 122.529 22.5833 122.162 22.05C121.795 21.5167 121.312 21.25 120.712 21.25C120.262 21.25 119.845 21.3417 119.462 21.525C119.079 21.6917 118.779 21.9167 118.562 22.2C118.595 22.2667 118.662 22.45 118.762 22.75C118.895 23.25 118.962 23.8667 118.962 24.6V32H115.712V24.575C115.712 23.425 115.529 22.5833 115.162 22.05C114.795 21.5167 114.312 21.25 113.712 21.25C113.362 21.25 112.995 21.3583 112.612 21.575C112.245 21.775 111.97 22 111.787 22.25L111.862 22.6C111.929 22.8 111.962 23.125 111.962 23.575V32H108.712V23.5ZM135.266 32.25C134.05 32.25 132.983 31.9833 132.066 31.45C131.166 30.9 130.475 30.1667 129.991 29.25C129.508 28.3167 129.266 27.275 129.266 26.125C129.266 24.975 129.508 23.9417 129.991 23.025C130.475 22.0917 131.166 21.3583 132.066 20.825C132.983 20.275 134.05 20 135.266 20C136.483 20 137.541 20.275 138.441 20.825C139.358 21.3583 140.058 22.0917 140.541 23.025C141.025 23.9417 141.266 24.975 141.266 26.125C141.266 27.275 141.025 28.3167 140.541 29.25C140.058 30.1667 139.358 30.9 138.441 31.45C137.541 31.9833 136.483 32.25 135.266 32.25ZM135.266 31.125C136.116 31.125 136.766 30.6667 137.216 29.75C137.666 28.8333 137.891 27.625 137.891 26.125C137.891 24.625 137.666 23.4167 137.216 22.5C136.766 21.5833 136.116 21.125 135.266 21.125C134.416 21.125 133.766 21.5833 133.316 22.5C132.866 23.4167 132.641 24.625 132.641 26.125C132.641 27.625 132.866 28.8333 133.316 29.75C133.766 30.6667 134.416 31.125 135.266 31.125ZM158.592 32.1C157.542 32.1 156.592 31.8833 155.742 31.45C154.892 31 154.2 30.1333 153.667 28.85L153.092 27.45H146.442L144.392 32H143.092L150.467 15.5H151.592L157.192 28.85C157.825 30.4 158.692 31.2333 159.792 31.35V31.975C159.492 32.0583 159.092 32.1 158.592 32.1ZM146.967 26.325H152.617L149.867 19.8L146.967 26.325ZM165.803 32.25C163.853 32.25 162.511 31.9083 161.778 31.225C161.511 30.975 161.345 30.625 161.278 30.175C161.211 29.7083 161.178 29.0667 161.178 28.25H162.053C162.203 29.1167 162.545 29.8167 163.078 30.35C163.611 30.8667 164.353 31.125 165.303 31.125C166.97 31.125 167.803 30.5583 167.803 29.425C167.803 28.9917 167.62 28.6333 167.253 28.35C166.903 28.0667 166.336 27.75 165.553 27.4L164.253 26.85C163.186 26.3833 162.386 25.875 161.853 25.325C161.32 24.775 161.053 24.1083 161.053 23.325C161.053 22.275 161.486 21.4583 162.353 20.875C163.236 20.2917 164.386 20 165.803 20C167.753 20 169.095 20.3417 169.828 21.025C170.095 21.275 170.261 21.625 170.328 22.075C170.395 22.525 170.428 23.1667 170.428 24H169.553C169.403 23.1333 169.061 22.4417 168.528 21.925C167.995 21.3917 167.253 21.125 166.303 21.125C165.586 21.125 165.053 21.2833 164.703 21.6C164.353 21.9 164.178 22.3083 164.178 22.825C164.178 23.2417 164.32 23.5917 164.603 23.875C164.903 24.1417 165.353 24.4083 165.953 24.675L167.453 25.3C168.686 25.8167 169.57 26.3417 170.103 26.875C170.653 27.3917 170.928 28.075 170.928 28.925C170.928 29.9917 170.453 30.8167 169.503 31.4C168.57 31.9667 167.336 32.25 165.803 32.25ZM178.422 32.25C177.272 32.25 176.381 31.9417 175.747 31.325C175.114 30.6917 174.797 29.7833 174.797 28.6V21.375H173.297V20.25H174.797V18L176.047 16.5H178.047V20.25H180.797V21.375H178.047V28.75C178.047 29.65 178.156 30.275 178.372 30.625C178.589 30.9583 178.914 31.125 179.347 31.125C179.814 31.125 180.281 31.0167 180.747 30.8C180.931 30.7 181.122 30.5833 181.322 30.45L181.672 31.15C181.456 31.3333 181.197 31.5167 180.897 31.7C180.197 32.0667 179.372 32.25 178.422 32.25ZM192.135 20.5C192.435 20.7167 192.652 20.9583 192.785 21.225C192.919 21.475 192.985 21.6083 192.985 21.625L191.71 22.6C191.594 22.45 191.444 22.2917 191.26 22.125C190.894 21.7917 190.469 21.625 189.985 21.625C189.019 21.625 188.277 21.8833 187.76 22.4L187.81 22.775C187.844 23.075 187.86 23.35 187.86 23.6V32H184.61V23.5C184.61 22.65 184.494 22.025 184.26 21.625C184.044 21.2083 183.585 21 182.885 21H182.635V20.25H185.11C185.677 20.25 186.119 20.325 186.435 20.475C186.769 20.6083 187.027 20.8417 187.21 21.175C188.11 20.3917 189.16 20 190.36 20C191.077 20 191.669 20.1667 192.135 20.5ZM200.74 32.25C199.523 32.25 198.457 31.9833 197.54 31.45C196.64 30.9 195.948 30.1667 195.465 29.25C194.982 28.3167 194.74 27.275 194.74 26.125C194.74 24.975 194.982 23.9417 195.465 23.025C195.948 22.0917 196.64 21.3583 197.54 20.825C198.457 20.275 199.523 20 200.74 20C201.957 20 203.015 20.275 203.915 20.825C204.832 21.3583 205.532 22.0917 206.015 23.025C206.498 23.9417 206.74 24.975 206.74 26.125C206.74 27.275 206.498 28.3167 206.015 29.25C205.532 30.1667 204.832 30.9 203.915 31.45C203.015 31.9833 201.957 32.25 200.74 32.25ZM200.74 31.125C201.59 31.125 202.24 30.6667 202.69 29.75C203.14 28.8333 203.365 27.625 203.365 26.125C203.365 24.625 203.14 23.4167 202.69 22.5C202.24 21.5833 201.59 21.125 200.74 21.125C199.89 21.125 199.24 21.5833 198.79 22.5C198.34 23.4167 198.115 24.625 198.115 26.125C198.115 27.625 198.34 28.8333 198.79 29.75C199.24 30.6667 199.89 31.125 200.74 31.125Z" fill="#F48534"/>
<path d="M76.14 49V42H78.99C79.7367 42 80.39 42.15 80.95 42.45C81.5167 42.7433 81.9567 43.1533 82.27 43.68C82.5833 44.2067 82.74 44.8133 82.74 45.5C82.74 46.1867 82.5833 46.7933 82.27 47.32C81.9567 47.8467 81.5167 48.26 80.95 48.56C80.39 48.8533 79.7367 49 78.99 49H76.14ZM76.88 48.36H78.95C79.57 48.36 80.1067 48.24 80.56 48C81.02 47.7533 81.3767 47.4167 81.63 46.99C81.8833 46.5567 82.01 46.06 82.01 45.5C82.01 44.9333 81.8833 44.4367 81.63 44.01C81.3767 43.5833 81.02 43.25 80.56 43.01C80.1067 42.7633 79.57 42.64 78.95 42.64H76.88V48.36ZM87.3617 45.13H91.0617V45.76H87.3617V45.13ZM87.4417 48.36H91.6517V49H86.7017V42H91.5017V42.64H87.4417V48.36ZM97.6212 49.06C97.1012 49.06 96.6012 48.9767 96.1212 48.81C95.6478 48.6367 95.2812 48.4167 95.0212 48.15L95.3112 47.58C95.5578 47.82 95.8878 48.0233 96.3012 48.19C96.7212 48.35 97.1612 48.43 97.6212 48.43C98.0612 48.43 98.4178 48.3767 98.6912 48.27C98.9712 48.1567 99.1745 48.0067 99.3012 47.82C99.4345 47.6333 99.5012 47.4267 99.5012 47.2C99.5012 46.9267 99.4212 46.7067 99.2612 46.54C99.1078 46.3733 98.9045 46.2433 98.6512 46.15C98.3978 46.05 98.1178 45.9633 97.8112 45.89C97.5045 45.8167 97.1978 45.74 96.8912 45.66C96.5845 45.5733 96.3012 45.46 96.0412 45.32C95.7878 45.18 95.5812 44.9967 95.4212 44.77C95.2678 44.5367 95.1912 44.2333 95.1912 43.86C95.1912 43.5133 95.2812 43.1967 95.4612 42.91C95.6478 42.6167 95.9312 42.3833 96.3112 42.21C96.6912 42.03 97.1778 41.94 97.7712 41.94C98.1645 41.94 98.5545 41.9967 98.9412 42.11C99.3278 42.2167 99.6612 42.3667 99.9412 42.56L99.6912 43.15C99.3912 42.95 99.0712 42.8033 98.7312 42.71C98.3978 42.6167 98.0745 42.57 97.7612 42.57C97.3412 42.57 96.9945 42.6267 96.7212 42.74C96.4478 42.8533 96.2445 43.0067 96.1112 43.2C95.9845 43.3867 95.9212 43.6 95.9212 43.84C95.9212 44.1133 95.9978 44.3333 96.1512 44.5C96.3112 44.6667 96.5178 44.7967 96.7712 44.89C97.0312 44.9833 97.3145 45.0667 97.6212 45.14C97.9278 45.2133 98.2312 45.2933 98.5312 45.38C98.8378 45.4667 99.1178 45.58 99.3712 45.72C99.6312 45.8533 99.8378 46.0333 99.9912 46.26C100.151 46.4867 100.231 46.7833 100.231 47.15C100.231 47.49 100.138 47.8067 99.9512 48.1C99.7645 48.3867 99.4778 48.62 99.0912 48.8C98.7112 48.9733 98.2212 49.06 97.6212 49.06ZM105.406 49V42.64H102.946V42H108.606V42.64H106.146V49H105.406ZM112.088 49V42H112.828V49H112.088ZM117.406 49V42H118.016L122.846 48.08H122.526V42H123.256V49H122.646L117.826 42.92H118.146V49H117.406ZM129.51 49V46.4L129.68 46.86L126.71 42H127.5L130.11 46.27H129.69L132.3 42H133.04L130.07 46.86L130.24 46.4V49H129.51ZM141.405 49V42H144.255C145.002 42 145.655 42.15 146.215 42.45C146.782 42.7433 147.222 43.1533 147.535 43.68C147.849 44.2067 148.005 44.8133 148.005 45.5C148.005 46.1867 147.849 46.7933 147.535 47.32C147.222 47.8467 146.782 48.26 146.215 48.56C145.655 48.8533 145.002 49 144.255 49H141.405ZM142.145 48.36H144.215C144.835 48.36 145.372 48.24 145.825 48C146.285 47.7533 146.642 47.4167 146.895 46.99C147.149 46.5567 147.275 46.06 147.275 45.5C147.275 44.9333 147.149 44.4367 146.895 44.01C146.642 43.5833 146.285 43.25 145.825 43.01C145.372 42.7633 144.835 42.64 144.215 42.64H142.145V48.36ZM152.627 45.13H156.327V45.76H152.627V45.13ZM152.707 48.36H156.917V49H151.967V42H156.767V42.64H152.707V48.36ZM163.977 49.06C163.45 49.06 162.964 48.9733 162.517 48.8C162.07 48.62 161.684 48.37 161.357 48.05C161.03 47.73 160.774 47.3533 160.587 46.92C160.407 46.4867 160.317 46.0133 160.317 45.5C160.317 44.9867 160.407 44.5133 160.587 44.08C160.774 43.6467 161.03 43.27 161.357 42.95C161.69 42.63 162.08 42.3833 162.527 42.21C162.974 42.03 163.46 41.94 163.987 41.94C164.494 41.94 164.97 42.0267 165.417 42.2C165.864 42.3667 166.24 42.62 166.547 42.96L166.077 43.43C165.79 43.1367 165.474 42.9267 165.127 42.8C164.78 42.6667 164.407 42.6 164.007 42.6C163.587 42.6 163.197 42.6733 162.837 42.82C162.477 42.96 162.164 43.1633 161.897 43.43C161.63 43.69 161.42 43.9967 161.267 44.35C161.12 44.6967 161.047 45.08 161.047 45.5C161.047 45.92 161.12 46.3067 161.267 46.66C161.42 47.0067 161.63 47.3133 161.897 47.58C162.164 47.84 162.477 48.0433 162.837 48.19C163.197 48.33 163.587 48.4 164.007 48.4C164.407 48.4 164.78 48.3333 165.127 48.2C165.474 48.0667 165.79 47.8533 166.077 47.56L166.547 48.03C166.24 48.37 165.864 48.6267 165.417 48.8C164.97 48.9733 164.49 49.06 163.977 49.06ZM173.338 49.06C172.811 49.06 172.321 48.9733 171.868 48.8C171.421 48.62 171.031 48.37 170.698 48.05C170.371 47.7233 170.115 47.3467 169.928 46.92C169.748 46.4867 169.658 46.0133 169.658 45.5C169.658 44.9867 169.748 44.5167 169.928 44.09C170.115 43.6567 170.371 43.28 170.698 42.96C171.031 42.6333 171.421 42.3833 171.868 42.21C172.315 42.03 172.805 41.94 173.338 41.94C173.865 41.94 174.351 42.03 174.798 42.21C175.245 42.3833 175.631 42.63 175.958 42.95C176.291 43.27 176.548 43.6467 176.728 44.08C176.915 44.5133 177.008 44.9867 177.008 45.5C177.008 46.0133 176.915 46.4867 176.728 46.92C176.548 47.3533 176.291 47.73 175.958 48.05C175.631 48.37 175.245 48.62 174.798 48.8C174.351 48.9733 173.865 49.06 173.338 49.06ZM173.338 48.4C173.758 48.4 174.145 48.33 174.498 48.19C174.858 48.0433 175.168 47.84 175.428 47.58C175.695 47.3133 175.901 47.0067 176.048 46.66C176.195 46.3067 176.268 45.92 176.268 45.5C176.268 45.08 176.195 44.6967 176.048 44.35C175.901 43.9967 175.695 43.69 175.428 43.43C175.168 43.1633 174.858 42.96 174.498 42.82C174.145 42.6733 173.758 42.6 173.338 42.6C172.918 42.6 172.528 42.6733 172.168 42.82C171.808 42.96 171.495 43.1633 171.228 43.43C170.968 43.69 170.761 43.9967 170.608 44.35C170.461 44.6967 170.388 45.08 170.388 45.5C170.388 45.9133 170.461 46.2967 170.608 46.65C170.761 47.0033 170.968 47.3133 171.228 47.58C171.495 47.84 171.808 48.0433 172.168 48.19C172.528 48.33 172.918 48.4 173.338 48.4ZM180.967 49V42H183.817C184.563 42 185.217 42.15 185.777 42.45C186.343 42.7433 186.783 43.1533 187.097 43.68C187.41 44.2067 187.567 44.8133 187.567 45.5C187.567 46.1867 187.41 46.7933 187.097 47.32C186.783 47.8467 186.343 48.26 185.777 48.56C185.217 48.8533 184.563 49 183.817 49H180.967ZM181.707 48.36H183.777C184.397 48.36 184.933 48.24 185.387 48C185.847 47.7533 186.203 47.4167 186.457 46.99C186.71 46.5567 186.837 46.06 186.837 45.5C186.837 44.9333 186.71 44.4367 186.457 44.01C186.203 43.5833 185.847 43.25 185.387 43.01C184.933 42.7633 184.397 42.64 183.777 42.64H181.707V48.36ZM192.188 45.13H195.888V45.76H192.188V45.13ZM192.268 48.36H196.478V49H191.528V42H196.328V42.64H192.268V48.36ZM200.518 49V42H203.368C204.114 42 204.768 42.15 205.328 42.45C205.894 42.7433 206.334 43.1533 206.648 43.68C206.961 44.2067 207.118 44.8133 207.118 45.5C207.118 46.1867 206.961 46.7933 206.648 47.32C206.334 47.8467 205.894 48.26 205.328 48.56C204.768 48.8533 204.114 49 203.368 49H200.518ZM201.258 48.36H203.328C203.948 48.36 204.484 48.24 204.938 48C205.398 47.7533 205.754 47.4167 206.008 46.99C206.261 46.5567 206.388 46.06 206.388 45.5C206.388 44.9333 206.261 44.4367 206.008 44.01C205.754 43.5833 205.398 43.25 204.938 43.01C204.484 42.7633 203.948 42.64 203.328 42.64H201.258V48.36Z" fill="#D9D9D9"/>
</svg>
